<svg xmlns="http://www.w3.org/2000/svg" viewBox="0 0 794.57 610.2"><defs><style>.cls-1,.cls-2{fill:#fff;stroke:#fff;stroke-miterlimit:10;}.cls-1{stroke-width:2.24px;}</style></defs><title>Asset 1</title><g id="Layer_2" data-name="Layer 2"><g id="Layer_1-2" data-name="Layer 1"><path class="cls-1" d="M252.94,353.71l-8,7.09q-4.23-5.89-8.62-5.89a5.24,5.24,0,0,0-3.49,1.14,3.33,3.33,0,0,0-1.36,2.58,4.41,4.41,0,0,0,1,2.71q1.32,1.71,8,7.32,6.21,5.19,7.53,6.55a22.71,22.71,0,0,1,4.68,6.37,15.91,15.91,0,0,1,1.38,6.64,15.23,15.23,0,0,1-4.85,11.58q-4.85,4.57-12.64,4.57a18.81,18.81,0,0,1-10.61-3,23.56,23.56,0,0,1-7.74-9.37l9.12-5.5q4.11,7.55,9.47,7.55a7,7,0,0,0,4.69-1.63,4.84,4.84,0,0,0,1.9-3.76,6.49,6.49,0,0,0-1.44-3.87,41.44,41.44,0,0,0-6.32-5.93q-9.31-7.59-12-11.72a14.89,14.89,0,0,1-2.72-8.23,13.46,13.46,0,0,1,4.52-10.17,15.67,15.67,0,0,1,11.15-4.24,17.59,17.59,0,0,1,8.13,2A29.6,29.6,0,0,1,252.94,353.71Z"/><path class="cls-1" d="M260.26,346h31.49v10.69H281.37v46.29h-11V356.66H260.26Z"/><path class="cls-1" d="M301.51,346H313q9.44,0,13.45,1.68a13.78,13.78,0,0,1,6.44,5.6,17.15,17.15,0,0,1,2.44,9.26,15.78,15.78,0,0,1-2.69,9.39,16.34,16.34,0,0,1-8.11,5.71L338,402.95H326.16l-12.81-24.13h-1v24.13H301.51Zm10.85,22.27h3.4q5.17,0,7.13-1.36t2-4.51a5.51,5.51,0,0,0-1-3.24,5.35,5.35,0,0,0-2.59-2,19.6,19.6,0,0,0-5.95-.6h-3Z"/><path class="cls-1" d="M347.61,346h10.77v57H347.61Z"/><path class="cls-1" d="M372.12,346h11.5q9.34,0,13.46,1.72a13.69,13.69,0,0,1,6.51,5.58A17.22,17.22,0,0,1,406,362.5a15.52,15.52,0,0,1-3.12,9.92,16.17,16.17,0,0,1-8.46,5.5q-3.14.89-11.43.89v24.13H372.12ZM383,368.24h3.45a18.62,18.62,0,0,0,5.66-.58,5,5,0,0,0,2.5-1.92,5.64,5.64,0,0,0,.91-3.25,5.19,5.19,0,0,0-2.56-4.82q-1.86-1.13-6.89-1.13H383Z"/><path class="cls-1" d="M442,346h11v19.64L468.47,346h13l-19.9,25.43,21.83,31.55H470.57L453,377.63v25.32H442Z"/><path class="cls-1" d="M492.78,346h31.11v10.61H503.55v10.3h20.34V377.3H503.55v15h20.34v10.65H492.78Z"/><path class="cls-1" d="M531.54,346h11.64l10.63,20.5L564.39,346h11.5l-16.68,32.31v24.68H548.29V378.27Z"/><path class="cls-2" d="M225.46,414.18h5.69v51.48h21.92v5.5H225.46Z"/><path class="cls-2" d="M316.82,414.18h5.69v57h-5.69Z"/><path class="cls-2" d="M388.51,471.16l8.16-57h.92l23.17,46.75,22.94-46.75h.91l8.2,57h-5.58l-5.63-40.75-20.15,40.75H420L399.61,430.1,394,471.16Z"/><path class="cls-2" d="M543.5,412.74a29.57,29.57,0,0,1,21.67,8.64A30,30,0,0,1,544,472.59a29.17,29.17,0,0,1-21.4-8.68,28.53,28.53,0,0,1-8.72-21,30.36,30.36,0,0,1,4-15.22,29.35,29.35,0,0,1,25.68-15Zm.25,5.54a24.33,24.33,0,0,0-20.83,12.17,24.68,24.68,0,0,0-3.18,12.44,24,24,0,0,0,24,24.15A24.38,24.38,0,0,0,556,463.83a23,23,0,0,0,8.81-8.8A24.72,24.72,0,0,0,568,442.63a24.12,24.12,0,0,0-3.16-12.27,23.62,23.62,0,0,0-8.9-8.78A24.1,24.1,0,0,0,543.75,418.28Z"/><path class="cls-2" d="M607.91,169.32a1.36,1.36,0,1,0-2.71,0,1.34,1.34,0,0,0,1.14,1.31c.47-.37,1-.75,1.53-1.13a.81.81,0,0,0,0-.18Zm0,0"/><path class="cls-2" d="M601.81,177.11a1.35,1.35,0,1,0-.88,2.38,1.32,1.32,0,0,0,.81-.3,6.79,6.79,0,0,1,.07-2.08Zm0,0"/><path class="cls-2" d="M601.91,173.26a1.36,1.36,0,0,0,0,2.72,1.41,1.41,0,0,0,.22,0,8.91,8.91,0,0,1,1-1.91,1.34,1.34,0,0,0-1.21-.76Zm0,0"/><path class="cls-2" d="M605.11,171.71a1.22,1.22,0,0,0,0-.2,1.36,1.36,0,1,0-1.36,1.36,1.45,1.45,0,0,0,.25,0c.32-.37.67-.74,1.07-1.11Zm0,0"/><path class="cls-2" d="M601.57,180.46a1.36,1.36,0,1,0,1.26,1.86,9.09,9.09,0,0,1-.79-1.76,1.3,1.3,0,0,0-.47-.09Zm0,0"/><path class="cls-2" d="M604.61,187.34a1.36,1.36,0,0,0,2.72,0,1.32,1.32,0,0,0-.05-.24c-.44-.34-.89-.71-1.35-1.11a1.36,1.36,0,0,0-1.32,1.35Zm0,0"/><path class="cls-2" d="M607.63,189.16a1.36,1.36,0,0,0,2.71,0,.31.31,0,0,0,0-.08c-.41-.23-1.08-.62-1.89-1.16a1.37,1.37,0,0,0-.81,1.24Zm0,0"/><path class="cls-2" d="M603.32,183.5a1.36,1.36,0,1,0,1.36,1.36.56.56,0,0,0,0-.1c-.35-.38-.69-.78-1-1.19a1.29,1.29,0,0,0-.32-.06Zm0,0"/><path class="cls-2" d="M693.85,179c-.29-.85-.48-1.62-.67-2.37h0c-.2.77-.41,1.56-.66,2.36l-1.27,3.76h3.92Zm0,0"/><path class="cls-2" d="M636.41,179c-.29-.85-.48-1.62-.68-2.37h0c-.19.77-.4,1.56-.65,2.36l-1.27,3.76h3.91Zm0,0"/><path class="cls-2" d="M610.79,167.75a1.25,1.25,0,0,0,.09-.41,1.36,1.36,0,0,0-2.72,0,1.34,1.34,0,0,0,1,1.29c.43-.27.85-.53,1.32-.8Zm0,0"/><path class="cls-2" d="M614.83,166.11a1.36,1.36,0,1,0-2.72,0,1.32,1.32,0,0,0,.59,1.09l2-.58a1.53,1.53,0,0,0,.1-.51Zm0,0"/><path class="cls-2" d="M618.89,164.88a1.36,1.36,0,0,0-2.72,0,1.33,1.33,0,0,0,.66,1.13l1.93-.56a1.3,1.3,0,0,0,.14-.57Zm0,0"/><path class="cls-2" d="M617.57,193.61a1.36,1.36,0,0,0,2.72,0,1.31,1.31,0,0,0-.23-.7l-1.5-.58a1.34,1.34,0,0,0-1,1.28Zm0,0"/><path class="cls-2" d="M621.05,195a1.36,1.36,0,1,0,2.71,0,1.28,1.28,0,0,0-.23-.71l-1.48-.58a1.34,1.34,0,0,0-1,1.28Zm0,0"/><path class="cls-2" d="M624.73,196.46a1.36,1.36,0,1,0,2.41-.83l-1.27-.49a1.34,1.34,0,0,0-1.14,1.32Zm0,0"/><path class="cls-2" d="M614.15,192.29a1.36,1.36,0,1,0,2.71,0,1.33,1.33,0,0,0-.24-.72l-1.46-.56a1.33,1.33,0,0,0-1,1.28Zm0,0"/><path class="cls-2" d="M610.83,190.81a1.36,1.36,0,1,0,2.71,0,1.42,1.42,0,0,0-.09-.46l-1.88-.73a1.36,1.36,0,0,0-.74,1.19Zm0,0"/><path class="cls-2" d="M648.25,205.7a1.35,1.35,0,1,0,2.71,0,1.29,1.29,0,0,0-.18-.64l-1.61-.63a1.34,1.34,0,0,0-.92,1.27Zm0,0"/><path class="cls-2" d="M644.77,204.47a1.36,1.36,0,1,0,2.71,0,1.32,1.32,0,0,0-.3-.8l-1.29-.51a1.34,1.34,0,0,0-1.13,1.31Zm0,0"/><path class="cls-2" d="M641.33,203.08a1.36,1.36,0,1,0,2.71,0,1.34,1.34,0,0,0-.25-.74l-1.42-.55a1.34,1.34,0,0,0-1,1.29Zm0,0"/><path class="cls-2" d="M651.7,207.05a1.36,1.36,0,0,0,2.71,0,1.29,1.29,0,0,0-.19-.64l-1.6-.63a1.34,1.34,0,0,0-.93,1.27Zm0,0"/><path class="cls-2" d="M669.36,209.05a1.36,1.36,0,1,0,1.75-1.28l-1.58.65a1.33,1.33,0,0,0-.17.63Zm0,0"/><path class="cls-2" d="M666.29,210.3a1.36,1.36,0,1,0,1.79-1.27l-1.64.68a1.32,1.32,0,0,0-.15.59Zm0,0"/><path class="cls-2" d="M661.06,210.57a1.36,1.36,0,1,0,2.71,0,1.31,1.31,0,0,0-.3-.81l-1.42-.48a1.34,1.34,0,0,0-1,1.29Zm0,0"/><path class="cls-2" d="M673,207.7a1.36,1.36,0,0,0,2.72,0,1.33,1.33,0,0,0-1.2-1.32l-1.22.5a1.32,1.32,0,0,0-.3.82Zm0,0"/><path class="cls-2" d="M675.76,206.45a1.36,1.36,0,1,0,2.72,0,1.34,1.34,0,0,0-1-1.29l-1.46.6a1.34,1.34,0,0,0-.21.69Zm0,0"/><path class="cls-2" d="M637.92,201.8a1.36,1.36,0,0,0,2.72,0,1.34,1.34,0,0,0-.31-.82l-1.28-.49a1.33,1.33,0,0,0-1.13,1.31Zm0,0"/><path class="cls-2" d="M634.73,200.42a1.36,1.36,0,1,0,2.54-.63l-1.64-.64a1.35,1.35,0,0,0-.9,1.27Zm0,0"/><path class="cls-2" d="M679.67,204.9a1.35,1.35,0,1,0,2.71,0,1.34,1.34,0,0,0-1.16-1.32l-1.27.53a1.35,1.35,0,0,0-.28.79Zm0,0"/><path class="cls-2" d="M689.81,200.7a1.36,1.36,0,1,0,1.55-1.32l-1.27.52a1.37,1.37,0,0,0-.29.8Zm0,0"/><path class="cls-2" d="M686.51,202.13a1.36,1.36,0,1,0,1.44-1.34l-1.09.46a1.34,1.34,0,0,0-.35.88Zm0,0"/><path class="cls-2" d="M682.78,203.65a1.36,1.36,0,1,0,2.71,0,1.34,1.34,0,0,0-1.24-1.33l-1.14.47a1.34,1.34,0,0,0-.33.86Zm0,0"/><path class="cls-2" d="M693.3,199a1.36,1.36,0,1,0,1.94-1.21l-1.84.77a1.26,1.26,0,0,0-.09.45Zm0,0"/><path class="cls-2" d="M703.46,195a1.36,1.36,0,0,0,2.71,0,1.33,1.33,0,0,0-1.11-1.31l-1.36.56a1.33,1.33,0,0,0-.25.74Zm0,0"/><path class="cls-2" d="M700.08,196.46a1.36,1.36,0,0,0,2.72,0,1.35,1.35,0,0,0-1.21-1.33l-1.2.49a1.34,1.34,0,0,0-.31.83Zm0,0"/><path class="cls-2" d="M696.65,197.82a1.36,1.36,0,0,0,2.71,0,1.34,1.34,0,0,0-1.1-1.3l-1.36.56a1.3,1.3,0,0,0-.25.74Zm0,0"/><path class="cls-2" d="M706.81,193.5a1.36,1.36,0,1,0,1.79-1.27l-1.65.69a1.33,1.33,0,0,0-.14.58Zm0,0"/><path class="cls-2" d="M717,188.82a1.36,1.36,0,1,0,1.41-1.35l-1.32.91a1.28,1.28,0,0,0-.09.44Zm0,0"/><path class="cls-2" d="M713.48,190.56a1.36,1.36,0,1,0,2-1.19l-1.9.79a1.43,1.43,0,0,0-.08.4Zm0,0"/><path class="cls-2" d="M710.09,192.21a1.36,1.36,0,1,0,2.71,0,1.34,1.34,0,0,0-1-1.29l-1.44.6a1.29,1.29,0,0,0-.22.7Zm0,0"/><path class="cls-2" d="M720.08,186.44a1.36,1.36,0,1,0,1.36-1.36h0c-.39.34-.83.7-1.27,1.05a1.46,1.46,0,0,0-.06.3Zm0,0"/><path class="cls-2" d="M721.87,168.11a1.36,1.36,0,1,0-2.63.44c.5.26,1,.55,1.54.86a1.34,1.34,0,0,0,1.08-1.31Zm0,0"/><path class="cls-2" d="M718,166.52a1.36,1.36,0,1,0-2.71,0,1.31,1.31,0,0,0,.08.42c.36.12,1.06.37,1.94.74a1.36,1.36,0,0,0,.69-1.16Zm0,0"/><path class="cls-2" d="M714.52,164.93a1.36,1.36,0,1,0-2.71,0,1.33,1.33,0,0,0,.21.68l1.53.6a1.34,1.34,0,0,0,1-1.28Zm0,0"/><path class="cls-2" d="M723.86,171.65a1.36,1.36,0,1,0-1.36-1.36,1.37,1.37,0,0,0,.07.35c.39.31.77.63,1.12,1a.86.86,0,0,0,.17,0Zm0,0"/><path class="cls-2" d="M726.1,181.74a1.36,1.36,0,1,0,0-2.71,1.48,1.48,0,0,0-.22,0,9.59,9.59,0,0,1-.94,2,1.34,1.34,0,0,0,1.16.69Zm0,0"/><path class="cls-2" d="M726.18,177.82a1.32,1.32,0,0,0,.87.34,1.36,1.36,0,0,0,0-2.71,1.33,1.33,0,0,0-.91.36,6.19,6.19,0,0,1,0,2Zm0,0"/><path class="cls-2" d="M726.17,174.35a1.36,1.36,0,1,0-1.34-1.43,8.64,8.64,0,0,1,.79,1.31,1.35,1.35,0,0,0,.55.12Zm0,0"/><path class="cls-2" d="M724.1,184.92a1.35,1.35,0,0,0,0-2.71,17.78,17.78,0,0,1-1.35,1.57,1.35,1.35,0,0,0,1.32,1.14Zm0,0"/><path class="cls-2" d="M215.58,162.67a3,3,0,1,0-3-3,3,3,0,0,0,3,3Zm0,0"/><path class="cls-2" d="M241.18,134.43a3,3,0,1,0-3-3,3,3,0,0,0,3,3Zm0,0"/><path class="cls-2" d="M278.91,127.6a3,3,0,1,0-3-3,3,3,0,0,0,3,3Zm0,0"/><path class="cls-2" d="M291.1,130.9a3,3,0,1,0-3-3,3,3,0,0,0,3,3Zm0,0"/><path class="cls-2" d="M332.16,188.78a3,3,0,1,0-3,3,3,3,0,0,0,3-3Zm0,0"/><path class="cls-2" d="M210.55,187.24a3,3,0,1,0-3-3,3,3,0,0,0,3,3Zm0,0"/><path class="cls-2" d="M209.07,196.6a3,3,0,1,0,3-3,3,3,0,0,0-3,3Zm0,0"/><path class="cls-2" d="M234.39,233.89a3,3,0,1,0-3-3,3,3,0,0,0,3,3Zm0,0"/><path class="cls-2" d="M321.56,209.84a3,3,0,1,0,3,3,3,3,0,0,0-3-3Zm0,0"/><path class="cls-2" d="M326.74,204a3,3,0,1,0-3-3,3,3,0,0,0,3,3Zm0,0"/><path class="cls-2" d="M326,166.8a3,3,0,1,0-3-3,3,3,0,0,0,3,3Zm0,0"/><path class="cls-2" d="M313,145.46a3,3,0,1,0-3-3,3,3,0,0,0,3,3Zm0,0"/><path class="cls-2" d="M230.5,142a3,3,0,1,0-3-3,3,3,0,0,0,3,3Zm0,0"/><path class="cls-2" d="M221.76,151.7a3,3,0,1,0-3-3,3,3,0,0,0,3,3Zm0,0"/><path class="cls-2" d="M211.75,174.58a3,3,0,1,0-3-3,3,3,0,0,0,3,3Zm0,0"/><path class="cls-2" d="M165.9,163.08l-.14.08h.14Zm0,0"/><path class="cls-2" d="M793.69,369.91c-3-27.47-23.28-43.31-24.14-44l-.63-.48-33-14.72.41.1c-12.64-5.09-67.91-33.19-75-36.81l-.64-65.73,1.45.48a1.21,1.21,0,0,1,1.42.48l1.57.52,1.39-.58a1.35,1.35,0,0,1,1.21-.77,1.26,1.26,0,0,1,.43.09l1.46-.61a1.34,1.34,0,0,1,1.18-.73,1.36,1.36,0,0,1,.39.07l2.14-.88a1.32,1.32,0,0,1,1.06-.54.73.73,0,0,1,.16,0l1.5-.62a1.33,1.33,0,0,1,1.14-.67,1.63,1.63,0,0,1,.32.06l2.52-1A1.34,1.34,0,0,1,681,203a1.29,1.29,0,0,1,.2,0l1.89-.79a1.36,1.36,0,0,1,1-.49l.11,0,2.61-1.08a1.35,1.35,0,0,1,1-.47l.08,0,2.14-.89a1.34,1.34,0,0,1,1.07-.56,1.61,1.61,0,0,1,.19,0l2-.85a1.35,1.35,0,0,1,1.27-.91,1.31,1.31,0,0,1,.58.14l1.65-.68a1.33,1.33,0,0,1,1.11-.62,1.18,1.18,0,0,1,.25.05l2.13-.89a1.35,1.35,0,0,1,1-.53,1.08,1.08,0,0,1,.15,0l2.13-.88a1.34,1.34,0,0,1,1.11-.62,1.29,1.29,0,0,1,.26.05l1.88-.78a1.29,1.29,0,0,1,1.65-.69l1.71-.71a1.35,1.35,0,0,1,1.14-.66,1.32,1.32,0,0,1,.3.07l1.81-.75a1.34,1.34,0,0,1,1.27-1,1.36,1.36,0,0,1,.63.18l.17-.07c.5-.31,1-.62,1.42-.93a1.34,1.34,0,0,1,1.27-.92l.05,0q.95-.67,1.76-1.33a1.33,1.33,0,0,1,1.27-1.06c.5-.45,1-.88,1.37-1.31a1.31,1.31,0,0,1,0-.21,1.35,1.35,0,0,1,1.36-1.35h0a12.7,12.7,0,0,0,.81-1.16,1.32,1.32,0,0,1-.2-.66,1.34,1.34,0,0,1,1.14-1.31,7.48,7.48,0,0,0,.3-1.26,1.33,1.33,0,0,1-.48-1,1.36,1.36,0,0,1,.45-1,6.64,6.64,0,0,0-.52-1.57,1.36,1.36,0,0,1-.81-1.23s0,0,0-.08a11,11,0,0,0-1.14-1.3,1.32,1.32,0,0,1-1.12-1,19,19,0,0,0-1.79-1.23,1.39,1.39,0,0,1-.27.05,1.34,1.34,0,0,1-1.27-.91c-.67-.34-1.32-.64-1.88-.88a1.35,1.35,0,0,1-.68.2,1.34,1.34,0,0,1-1.27-.94l-.28-.09-1.6-.63a1.4,1.4,0,0,1-.38.07,1.34,1.34,0,0,1-1.15-.68l-3.59-1.42a6.53,6.53,0,1,0-9-3.57l-1.33-.53a6.55,6.55,0,0,0-12.11-4.78L683,153.64a6.53,6.53,0,0,0-5-2.36,6,6,0,0,0-.81.05l-12.62-5L658.88,149V137.86l3.7-.4-3.7-.74V122.9h-14l-.61-5.68-.63,5.68H629l.09,13.46-3.3.36,3.31.58.11,17a6.54,6.54,0,1,0-7.73,9.67l-1.61.63-1.12.32a1.35,1.35,0,0,1-1.22.78,1.32,1.32,0,0,1-.71-.22l-2.11.61a1.31,1.31,0,0,1-2,.58l-1.91.55a1.34,1.34,0,0,1-1.27.94,1.5,1.5,0,0,1-.33-.06c-.46.29-.9.57-1.31.86a1.33,1.33,0,0,1-1.31,1.18,1.13,1.13,0,0,1-.21,0q-.67.54-1.23,1.08a1.33,1.33,0,0,1-1.07,1.11,11.94,11.94,0,0,0-.93,1.2,1.33,1.33,0,0,1,.16.6,1.35,1.35,0,0,1-1.14,1.32,7.27,7.27,0,0,0-.33,1.17,1.33,1.33,0,0,1,.48,1,1.34,1.34,0,0,1-.54,1.07A7.35,7.35,0,0,0,602,180a1.33,1.33,0,0,1,.79,1.77,12,12,0,0,0,.82,1.25,1.33,1.33,0,0,1,1,1.19c.41.44.84.85,1.27,1.23h0a1.33,1.33,0,0,1,1.3,1.11c.4.3.79.58,1.16.83a1.28,1.28,0,0,1,.55-.12,1.35,1.35,0,0,1,1.34,1.28l.43.23.82.32a1.32,1.32,0,0,1,.62-.17,1.35,1.35,0,0,1,1.26.89l1.7.66a1.1,1.1,0,0,1,.34-.07,1.32,1.32,0,0,1,1.12.63l1.95.75a1.34,1.34,0,0,1,.37-.07,1.32,1.32,0,0,1,1.13.65l2,.76a1.28,1.28,0,0,1,.36-.07,1.34,1.34,0,0,1,1.13.65l2.34.89a1.84,1.84,0,0,1,.22,0,1.35,1.35,0,0,1,1,.53l.88.34-.32,34.34-12.33,2.13.09-.72c.46-.45,0-1,0-1l.09-1c1.34-1.67-1.2-2.48-1.2-2.48a3.8,3.8,0,0,0-1.25-.54c.46-.95-.69-1-.69-1-1,0-.78,1-.78,1a2.8,2.8,0,0,0-1.29.5c-2.9.81-1.15,2.34-1.15,2.34l-.14,1c-.46.13-.23.81-.23.81.64.54-.27,1.44-.27,1.44l-25.21-.58L583.4,180l-1.35.39.19-2.9c-57.53,29-107.14-11.39-107.14-11.39v4.25l-1.16-.39.54,61-4.7-6.92v-3h.8v-1h-.91V217h.53v-.47h-4.05l-7.43-21.29.5-5.07-2.7-2c-1-1.69-4.39-31.76-4.39-31.76l-1.52-25.34.67-.84.17-3.89-.51-3.21-2.2-.85-.67-7.6h-1l-.17,7.6-1.52.5L444.2,126l.16,4.22.85.34-1.53,25.68c-.67,10-4.36,32.27-4.36,32.27l-2.77,1.7.72,5.9-7.07,20.38H426v.81h.36v2.41h-.71v1.43h.89l-.09,3.13-3.72,5.83c-11.08-89.42-5.08-152.56-5.08-152.56,3.39-2.17,3.14-6.77,3.14-6.77L429,57.46c.49-7.5-11.61-10.4-11.61-10.4-1-4.83-6.77-5.8-6.77-5.8l-.72-30.71-.73-1.94-.24-8-1,.24-.24,7.74-.24,1.45L407,41.74c-3.87.48-6.28,5.32-6.28,5.32-13.06,3.38-11.85,10.64-11.85,10.64l8.22,13.54-1.82,2.46c11.94,21.77,2.55,101.33-4,146.18l-34.74-24.24L299.23,245.1l-3.49.39.08-6.91-6,.14-1.31-2.63a56.3,56.3,0,0,0,12.1-5.92,3,3,0,0,0-.73,1.94,3,3,0,1,0,3-3,2.91,2.91,0,0,0-.9.16,57,57,0,0,0,9.46-8.22,3,3,0,1,0,2.59-1.49,3,3,0,0,0-1.78.6,56.11,56.11,0,0,0,14.1-37.27,56.7,56.7,0,0,0-.44-7,3,3,0,1,0-.09-.68,55.86,55.86,0,0,0-7.57-21.47,3,3,0,1,0-.37-.59A56.63,56.63,0,0,0,301.27,136a3,3,0,0,0,1.62.48,3,3,0,1,0-1.72-.54,56.05,56.05,0,0,0-31.14-9.4c-1.26,0-2.5.06-3.73.14a3,3,0,1,0-1.13.08,56.11,56.11,0,0,0-11.34,2.15,3.38,3.38,0,1,0-.78.23,56.38,56.38,0,0,0-36.37,71.78l-17.8-4.44c-.68-1.78-1.26.21-1.26.21L179.51,209l-1.32,0L171,214.45c-1.31-1.58-1.26.31-1.26.31l-.89.42-21.87,1.89c-.58-1.68-1,.1-1,.1l-7.92.43c-.08-.61-.17-1.21-.23-1.79-.16-1.71-.31-3.44-.48-5.16-.14-.26-.53-.21-.58-.68l-.09-3.61a8.22,8.22,0,0,1-.47-3.83c.2-1-.67-2.12-.53-3s.34-1.81.51-2.58c.19-1-.77-2.67-.73-3.2.43-4.83-.2-11.15-.84-16.24.53,0,.56.19.67.06s-.07-.36.08-.61l0,.12a2.61,2.61,0,0,1,.95,1.14l.18,0c-.1-.54-.22-.87.18-1.32.17.08,0,0,.34.09,0-.37-.1-.73-.14-1.07a2,2,0,0,0,1.31-.22c-.15-.28-.3-.53-.44-.82l.2.11c.15.23.13-.25.13-.25a1,1,0,0,1-.4-.44l.16,0v-.13H138v.13l.37.33.17,0,0-.24a5.69,5.69,0,0,1-1.4-2.06l.3,0a5.72,5.72,0,0,1,1.45,1l.47-.15v-.12a4.59,4.59,0,0,1-1.5-1.44l.17,0a1.61,1.61,0,0,0,.68.3l0-.22a8.9,8.9,0,0,1-2.78-2.45c0-.28-.07-.56-.1-.83-.32-.52-1.34-1-1.66-1.56-.56-.93,0-4.63.12-5.69.09-.59-.32-.48-.41-.57,0-.77-.07-1.53-.12-2.3a6.29,6.29,0,0,1-.52-1.51,3.84,3.84,0,0,1,.63-.3c-.25.88.49.62.82,1.26-.3.35-.47,1.49-.13,1.83a2.67,2.67,0,0,1,.36-1.35c.42-.09.22.05.3-.27-.26-.24.29-1.64.45-1.73a6.58,6.58,0,0,0,.08.72c.17.22.11.83.18,1.43l.8-.06.23.46h.17l-.1-.85c-.58-.33-.08-.65-.31-1.05s-1.05-.72-.15-1.2l0,.12a4.5,4.5,0,0,1,.68,1.63h.17c0-.45-.12-.3.27-.52a4.13,4.13,0,0,0,1.29,1l0-.24c-1.87-1.05-1.51-2.24-.94-3.68h.17v.13c.34.29.44.76.8,1-.13-.53-.38-.84-.31-1.19l.34.11c.32.34.65,1.16,1,1.48.56-.18.62.14,1.05.39l-.07-.34c-.68-.45-.3-1.48.12-1.94l0,.23a1.07,1.07,0,0,1,.37.45c-.52.13-.25,0-.46.28a2.51,2.51,0,0,1,.44.82c.28-.21.17-.27.6-.43.14.28.3.55.44.82l.17,0,0-.12c.1-.19,0-.43.09-.72.28.06.13,0,.34.1a1.39,1.39,0,0,1,.41.56h.17c0-.45,1.29-1.61,1.76-1.69l0,.22c-.6.59-1.54,1.43-1.55,2.3h.16v-.12l.26-.39h.18l0,.12.17,0a2.38,2.38,0,0,0-.39,1.11h.17v-.12a3.81,3.81,0,0,0,.7-1.14h.17v.13c.14.12.14.18.23.46a22.76,22.76,0,0,0-1.75,2.07l.34,0a2.82,2.82,0,0,1,1.19-1.05l.07.46c-.7.73-.93,2.79.4,3.25l-.08-.5c-.37-.29-.49-.73-.11-.94l.17.1c.56-.67.47-1.83.85-2.59l.21.21c.37.56-.21,2.06-.18,2.79l.17,0,0-.21c.29-.36.31-.75.72-1l0-.1.16,0c.06.29.06.34.24.46a1.68,1.68,0,0,0-.51-1.29c.66-.26.4-.61.73-1v.13c.58.59-.08,2.05.66,2.73a.91.91,0,0,1,.56-.9c.17.86-.09.7-.15,1.45h.34l0-.12a1.51,1.51,0,0,0,.53-1.13l.5,0a8.34,8.34,0,0,1,0,2.65h.34l0-.24c.46-.46.32-1.55.93-1.9.07.53.14,1.06.18,1.56a2.93,2.93,0,0,0-.2,1h.18c.15-.33.13-.37.6-.55l0,.37.5,0c-.11-.63-.21-1.32.11-1.7a1.59,1.59,0,0,0,.21.46c.3-.17.27-.25.63-.4v.1c.91.48,1,1.7,1.93,2.14v.13h.17c-.13-1,.69-3.48,1.34-3.84.37.33.54.37.65,1-.58.28-.36.29-.23.88l.33,0c-.1-.47-.4-.4.07-.62l0,.12c.65.56.56,2,.66,2.84h.17l0-.24c.16-.23,0-.86.21-1.09v.23c.71.62.81,1.77,1.33,2.57l.46-.17-.07-.46L160,161.75l.16-.12h.17a2.24,2.24,0,0,0,.61.92l.33,0a1.64,1.64,0,0,1,0-1.21c-.56-.13-2.52-3.41-2.11-3.7l.5,0c.32.3,1,.46,1.25.74l.24.46c.41-.2.47,0,1,0l0-.11c-.88-.32-1.46-1.27-1.65-1.32-.18.31.06.13-.46.28l0-.48c.33-.07.3-.05.47-.15-.93-.35-.52-.58-1.13-1a.51.51,0,0,0-.39,0,.81.81,0,0,1-.44,0l-.58-.57L158,155l.34.09.58.67c.18-.23.3-.21.43-.5-1-.31-1.46-1.26-2.49-1.62.07-.34,0-.34-.1-.71l.5,0a5.76,5.76,0,0,0,2.2,1.78v-.25c-1-.4-2.07-1.59-2-2.51l.47,0c.51.23,1.37.09,1.88.34s.1.42.71.55l0-.49a26.51,26.51,0,0,1-3.77-1l0-.09.66-.06a12.79,12.79,0,0,0,3.23.72c0-.26,0-.25.14-.39v.13h.16c.23.4-.07.57.74.66l0-.24-.34-.21c.69-.2.62,0,1.18.27l0-.49a.88.88,0,0,1-.74-.55l.34,0a1.93,1.93,0,0,0,1,.17V151h-.17c-.4-.28-.79-.22-1.08-.64l.65,0a7.66,7.66,0,0,0,1.5.12l0-.24a3.68,3.68,0,0,1-2-.33l.17-.12a2.57,2.57,0,0,0,1-.19,10.73,10.73,0,0,1-2.73-.52l0-.12.5,0a3.7,3.7,0,0,0,2,0l-.33,0c-1-.54-4.45-.4-4.31-1.37a9.78,9.78,0,0,1-2.72-.63,1.27,1.27,0,0,0,.1-.49l-.81.06a1,1,0,0,0-.71-.43,8.62,8.62,0,0,1-3.17,1.36c-.29-.2-.34-.14-.54-.45a1.75,1.75,0,0,0,.93-.56l-.16-.1c-.5,0-.23.14-.5,0s-.15-.2-.24-.46a1.21,1.21,0,0,0,.19-1.35c-.39-.91.59-2.8-.3-3.59,0,.4,0,.79-.37,1a6.74,6.74,0,0,1-.08-.71c.27-.44,0-1,.5-1.26l-.13.38.68,0c0-.26,0-.24.13-.36a2.7,2.7,0,0,0,1.41.83l0-.34a3,3,0,0,1-1.82-1.31l.66-.06c.17.11,0,0,.34.1.26.4.29.56.91.67l0-.26a1,1,0,0,1-.58-.67l.16,0,0-.1c1.19-.19,5.87-1.45,6.5-1.24.34.37,1,2.76,1.7,3-.07-.41-.11-.79-.18-1.2a11.53,11.53,0,0,1-1.39-2.18c1.52-.43,2.36-1.16,3.91-1.75a14.63,14.63,0,0,0,1.94-.5h-.17c-1.5-.63-4.48.43-6.23.6l-.54-.43c.9-.47,1.86-1.13,2.77-1.54s2.28-.37,3-.86l-1.78.27v-.12l.77-.3-.34,0a2.93,2.93,0,0,0-1-.27,1.87,1.87,0,0,1-1.24.68l0-.22a1.76,1.76,0,0,0,.6-.54l-.17,0v-.12h-.17v.12a8.78,8.78,0,0,1-3.71,2.1l0-.12c.74-.37,2-.85,2.13-1.61-2,.42-1.87,1.72-3.23,2.07l0-.37c.69-.46,1.29-1.07,2-1.6a2.17,2.17,0,0,1-.71-.43v.13c-.74.87-1.32,1.93-2.7,2.39v-.12c.57-.61,1.17-1.21,1.76-1.84l-.33,0c-.44.44-.9.88-1.33,1.32L153,134l-.1.49-.79.44c-.71.83-1.31,2.07-2,2.92l-.51-.07c-.07-.49,0-.16-.24-.59a4.54,4.54,0,0,0,1.37-1l-.31,0c-.46.37-1.12.58-1.56,1-.65-.11-.59-.33-1.35-.37a8.86,8.86,0,0,1-1.7,1.08l-3.26,3c-.34,0-.67,0-1,.07l-.43.52c-.61.37-2.68,1-3,1.45-.11.13-.06,0-.14.25h.17a3.31,3.31,0,0,1,1.57-.74v.13h-.16a34.46,34.46,0,0,1-6,3.48l0-.22c.42-.15.42-.15.6-.42-.42-.11-.79-.89-.65-1.14.23-.63,1.14-1.17,1.46-1.7s.2-.86.65-1.37c.32.05.17,0,.34.1s.29.21.42.58a1.1,1.1,0,0,0-.39.87h.17l.07-.09.42,0,0-.12c.38-.56-.12-1.56.25-2.08l0,.12c.57.37.51,1.15.86,1.74l.16,0c0-.47-.11-1-.18-1.42-.77-.57-.21-1.59.08-2.18l.17,0V139c.29.36-.09,1.09-.13,1.59l.17,0,0-.23c.9-.8-.07-1.71,1.23-2.16a1.49,1.49,0,0,0,.28.94l0-.23a5,5,0,0,0,.43-.76l.3,0c.13.49.24.46.45.82.1-.15,0,0,.13-.25s.11-.22.1-.49c-.45,0-.24.17-.51-.21.26-.19.17-.09.27-.37a3.24,3.24,0,0,1-.67-.08,4.61,4.61,0,0,0-.24-.71l.34,0c.18.38,0,.21.37.33a1.33,1.33,0,0,1,.1-.6l.47,0c0,.38,0,.49.07.61l0,.12.16,0a3.47,3.47,0,0,0-.14-1.2c1.25-.12,1.47-.42,2.75-.56l0-.37c.47-.26,1.91-.66,2.21-.9-.8.11-1.06.27-1.51,0l.17,0V134a6.94,6.94,0,0,0,2.55-.68l-.14,0,0-.12c-.52.21-1.08.34-1.31.1a6.49,6.49,0,0,0,1.91-.62h-.28c-.25,0-.19,0-.39-.21a2.77,2.77,0,0,0,.53-1h-.33a1.16,1.16,0,0,1-.47.17l0-.23c.63-.29.91-.25,1.39-.72h-.16v-.12a17.12,17.12,0,0,0-1.92.64c-.33.15-.12.35-.6.53a2,2,0,0,1-.4-.46c.53-.26,2.37-1.21,2.47-1.64h-.18a4.51,4.51,0,0,1-1.71.86l-.06-.36a4.62,4.62,0,0,0,1.84-1.36c-.46-.25-.29-.39-.12-.83l-.33,0a5.41,5.41,0,0,1-2.13,1.49l0-.35a5.36,5.36,0,0,0,2.05-2.21c-.39-.11-.4-.27-.7-.42a.56.56,0,0,0-.26,0c-.14,0-.22,0-.45-.17l-.41-.58-.17,0a1.05,1.05,0,0,1,.07.59l-.47,0a10.46,10.46,0,0,0,.16-1.45c.63-.43.49-1,1.5-1.21-.09-.27-.06-.24-.21-.37a9.68,9.68,0,0,1-1.44.6c.07-.59.51-.83.66-1.38l-.3,0a3.17,3.17,0,0,1-1.5,1.33l0-.12c-.26-.23-.13-.38-.08-.71l-.33,0c-.1.69-.37.84-.83,1.26l-.33,0v-.12c.59-.89,1.2-1.79,1.82-2.68l-.34,0a5.22,5.22,0,0,1-1.58,1.94l0-.25a7.27,7.27,0,0,0,1.26-2l-.34,0a9.18,9.18,0,0,1-1.23,2c-.59-.14-.12-.12-.83.06a4.91,4.91,0,0,0-.45-.82l0,.13a6.29,6.29,0,0,0-.53,1.13h-.17l-.07-.46a6.23,6.23,0,0,0,.51-2.58l-.31,0a6,6,0,0,1-.68,2.83h-.13l0-.12c-.14-.12-.13-.1-.21-.34a4.38,4.38,0,0,0,.38-2.34l-.17,0,0,.11c-.36.46,0,1.29-.65,1.61,0-.27-.07-.55-.11-.83a.9.9,0,0,0-.11-1.07,4,4,0,0,1-.26,2,.73.73,0,0,1-.37-.12c-.69-.71.26-1.8-.58-2.12a3.63,3.63,0,0,1,0,1.56l-.16,0,0-.12c-.31-.29-.24-.62-.75-.79.12.62.42.9-.19,1.23a2.44,2.44,0,0,0-.61-1.17c.13.73.51,1.47-.12,1.81l0-.12c-.26-.26-.53-1.15-.85-1.5l-.13,0v.25c.29.24,1.1,1.6.25,2,0-.36-.08-.73-.12-1.08-.13-.12-.11-.12-.2-.36l-.67.06c.1.45.23.87.32,1.31-.34.07-.31.05-.47.16a1.54,1.54,0,0,1,.28.92l-.17,0c-.35-.5-1.27-.48-2.19-.42l-.06-.49h-.18c-.26.3-.29.34-.93.46a2.09,2.09,0,0,1-.29,1.7,6.3,6.3,0,0,1-1.56.73l0-.25c.39-.25.54-.62.9-.92-.89-1,0-1.14.43-1.84a5.75,5.75,0,0,1,.09-.72l1.11-.46c-.64,0-.59.1-.87-.18.38-.42.15-.72,0-1.32h-.17v.12a2.54,2.54,0,0,0-.49,1.38c.33.05.45,0,.38.33,0,.19-.33.46-.41.75l-.32,0-.08-.49a.74.74,0,0,0,.43-.62h-.17l0,.12c-.44.3-.58.39-.56,1-.11.21.12.38-.07.86-.34,0-.67,0-1-.05-.32-.28-.42-.24-.61-.67a8.08,8.08,0,0,0,1.11-3.23h-.17l0,.25a2.22,2.22,0,0,0-.7,1.14l-.16,0,0-.24a5,5,0,0,0,.71-2.46h-.33a4,4,0,0,1-1,2.74,8.6,8.6,0,0,1,.82-2.59c-.28-.15-.2-.07-.37-.33-.12.13-.06,0-.13.25-.76.82-.19,2.37-.91,3.2-.26-2.09-.4-3.27-.65-5.25h-.17l0,.24c-.75,1.1.19,3.52-.63,4.51-.14-.9-.26-4.21-1.08-5a20.33,20.33,0,0,1,.41,4.79H123c-.23-1.17-.65-4.23-1.42-4.95.21,1.62,1.25,3.51.76,5l-.14,0c0-.24-.07-.49-.1-.73-1-1-.42-3-1.47-4,.31,1.3.66,2.61,1,3.91l-.16,0v-.12c-.81-.67-.85-3.26-1.78-3.62l0,.36c.57.56,1.23,3.23,1.34,4.13a2.18,2.18,0,0,1-.63.3c0-1-.55-2.71-1.7-3v-.12h-.17l.08.61a1.06,1.06,0,0,1,.24.71h-.14l0-.25c-.37-.29-.41-.72-.95-.88v.12c.49.38.33.74.35,1.41l-.33,0-.35-.21c0,.29,0,.35-.09.49-.23-.24-.28-.2-.41-.56,0,0,.63-.12.3-.16H117a1.37,1.37,0,0,0-1,.21c.31.21.35.28.41.68l-.14,0v.11c-.5-.19-.54-.44-1.21-.5a2,2,0,0,0-.06.86l.14,0,0,.12.16,0c-.07-.41-.12-.3-.07-.59l.33.1a13,13,0,0,1,1.5,2.66H117l0-.12c-.6-.48-.73-1.34-1.39-1.82l.07.61c.59.45.85,1.34,1.25,1.94l-.16,0,0-.12a5.72,5.72,0,0,1-1.79-2.52l-.31,0v.23a1.26,1.26,0,0,1,.47.94.58.58,0,0,1-.28,0c-.11,0,0-.07-.21.16a1.17,1.17,0,0,1,.44.68l-.17,0,0-.12a4.73,4.73,0,0,1-1.36-1.72l-.33,0,0,.24c.44.44-.19,1.13.22,1.79s1.35,1.57,1.76,2.29a1.43,1.43,0,0,0-.74.66l.31,0c.27-.25.33-.25,1-.31.3.77,1,.87,1.36,1.71a5.57,5.57,0,0,0-1.24.58v.11l.49,0a1.17,1.17,0,0,1,1.27-.34c.18.24.19.42-.26.62-.06-.26-.06-.32-.21-.46,0,.84-.55,1.28-.58,2.1h.17c.33-.39,1-.49,1.23-.71.44-.48-.19-.66.4-1l0,.24a1.38,1.38,0,0,1,.75.8c-.3.19-.33.17-.43.5h.17c.21-.25.13-.18.63-.3V131c-.37.31-.79.63-1.2,1l0-.25a1.81,1.81,0,0,0,.43-.64l-.81.06-.33.15a1.34,1.34,0,0,1-.09.62c.67,0,.64,0,.87.4l-.14,0s-.1-.47-.2-.24l0,.24-.16,0c.26.24.31.2.41.67-.53.24-1.2.31-1.2,1.08-.11.13-.09.11-.13.38l.16,0,.33-.14a2.48,2.48,0,0,1,.23-.64l.2.24c.14.13,0,.1.07.46l.47,0c0,.29,0,.35-.09.5-.42,1-1.7,1.22-2,2.46l.34,0a2.7,2.7,0,0,1,1.33-1.32A5,5,0,0,1,118,137h.17l.3-.28c0,.29,0,.56.08.85-.86,1,0,2.29-.44,3.17l0,.13a4.2,4.2,0,0,0-.67-.07h0v.13l.17,0c.63.7,1.46.44,2.12,1.17.14.17.1.42.27.7h.17l-.07-.37.51,0a3.86,3.86,0,0,0,2.12,1.16l0-.24c-.34-.11-.3-.05-.51-.32h-.17l0-.12h.18c.22-.26.49-.33.76-.55-.5,0-.53-.19-.67-.06a5.49,5.49,0,0,1-.77.43c-.37-.51-.82-.25-1.11-.89a2.36,2.36,0,0,0,.77-.43,3.21,3.21,0,0,0,.1.84h.17v-.12l.26-.49c.06.26.06.32.21.46v-.25c.43-.44.33-.94,1.16-1.17,0,.69-.41.62-.5,1.23h.17c.29-.39.3-.33,1-.31,0-.33-.08-.55.08-.74V141c.63.67.08,2.77.13,3.59l.48,0c.69.63,2.73,2,3,2.67l-.13,0a3.23,3.23,0,0,0-.92-.66l-.84-.07-.23-.46-.19.11a.7.7,0,0,1-.45.08,3.94,3.94,0,0,1-1.62-1,2.2,2.2,0,0,0,.76-.65l-.33,0a1.72,1.72,0,0,1-1.07.68c-.72-.78-4.1-1.9-5.42-2.22a11.4,11.4,0,0,0-.82-2.73h.16a1.71,1.71,0,0,0,1.22.39l0-.12h-.13c-.83-.49-3.32-.91-3.87-1.63a3.75,3.75,0,0,1-.82-1.27l-.3,0c.09.35.2.24,0,.5l0-.25c-2.31-.87-5.05-4.34-7.49-4.49v.13c.65.23,1.38.47,1.62,1.09h-.34a7.42,7.42,0,0,0-3.1-1.08v.12l.17,0c1,.55,2.95.84,3.37,1.91h-.17c-.94-.61-4.24-2.1-5.73-2.08l0,.13.33,0c1.17,1,4.1,1,4.93,2.26l-.34,0a13,13,0,0,0-5.47-1.37l0,.22-.17,0V135c.75-.1,1.26-.06,1.58.58l-.34,0c-.29-.2-.17-.15-.68-.18v.24l.34,0,2.58.75v.13l-.65.05A7.92,7.92,0,0,0,100,136v.12h.17a3.81,3.81,0,0,0,1.18.27l0,.22c-.54.1-1.09.17-1.61.25V137a22,22,0,0,1,5.57.91c-.07.32-.16.29-.26.62l.49,0c.27-.28.33-.26,1-.31v.1h.17a9.45,9.45,0,0,0-.63,1.74l.17,0v-.12c.43-.41.63-1.37,1-1.52l.53.19c-.25.72-.49,1.42-.74,2.12-2.23-.61-3.76-2-6.56-2.14l0,.22c.79.11.76.29,1.09.77l-.5.05c-.23-.2-.12-.14-.51-.21l0,.24c.28.13.19.06.37.34l-.5,0v-.12h-.17c0-.33.13-.25-.07-.47-.66.59-1.46.43-2.36.29a5.83,5.83,0,0,0-1.93-.08c-.45.1-1.33.4-1.75.51s-1.11,0-1.67,0c-.3.15,0,.36-.91.55.18.38-.08.19.37.34a3.73,3.73,0,0,1,2.53.28l-1.34.1c-.48-.23-.56-.1-1.31,0-.1.33-.23.37-.43.62h.34c.62-.77,3.87-.39,5.09-.28l0,.24a1.8,1.8,0,0,0-1,1l.17,0c.43-.44.89-.86,1.33-1.29a9.53,9.53,0,0,0,2.48,0c0,1.25-1.26,1.85-1.82,2.8l.51,0a1.32,1.32,0,0,1,1.19-1.17l0,.24A2.54,2.54,0,0,0,99.3,145h.17a1.51,1.51,0,0,1,.26-.52h.17l0,.24c.26.34-.13,1.34-.09,2l.17,0,0-.21c.78-1,.31-2.72.71-3.57.13-.27.67-.71.86-1a5.21,5.21,0,0,0,1.17,0l0,.24c-.36.21-.36.21-.43.65l.17,0,.46-.4,0,.38a6.58,6.58,0,0,0-.8,2.95h.34a6.58,6.58,0,0,1,1.11-3c-.42-.11-.09.06-.34-.21.58-.26.38-.4.77-.53.17.28.09.18.37.34-.16.23-.28.11-.47.28.75.77-.51,2.37-.57,3.42l.34,0a1.51,1.51,0,0,1,.46-.16,4.08,4.08,0,0,1-.08,2.06l.5,0a2,2,0,0,1,.66-1.38l0-.12h.16l0,.12.17.22c-.72.75-.17,1.94-.64,2.72.45.11.37.09.54.44a3.72,3.72,0,0,0-1.47.22l.83-.07,0,.37c-.34,0-.64.06-1,.07v.12c.51.12.3,0,.54.33l-1.14.09a2.6,2.6,0,0,0-1-.06l0,.24H104l-.14.12c-.76.45-2.55.38-4.17.3a14.61,14.61,0,0,0-2.92,0l0,.13a23.82,23.82,0,0,1,2.71.08,19.53,19.53,0,0,0,2.77.08l.06.34c-1.34,0-5.14-.55-6.14,0l4.5.24,0,.24-.5,0c-.84-.32-3.57.15-4.1.32v.12l2.62-.19a3.68,3.68,0,0,0,1.35.06c.61-.05,1.19-.1,1.51.2q-2,.14-4.09.32a5.58,5.58,0,0,1-1.65.25l0,.12.17,0c1,.36,3.79-.15,5.11-.29v.13l-.17,0c-.77.45-4.11.74-5.16,1v.12l.5,0a11.12,11.12,0,0,1,4.24-.44v.1c-1.25.18-3.41.5-4.18,1.05l4.06-.66,0,.23a31.32,31.32,0,0,0-3.34,1v.13l.67-.06a7.11,7.11,0,0,1,2.88-.69l0,.22-.18,0c-.76.61-2.49.63-3.31,1.22a2.17,2.17,0,0,1,1,.05,2.13,2.13,0,0,0-.6.53l.5,0a5.93,5.93,0,0,1,2.7-.94v.13a14.68,14.68,0,0,1-1.67,1.09c.18.27.21.17.38.46a3.92,3.92,0,0,0-1.23.82l.5,0a2.12,2.12,0,0,1,1.94-.5c.76-.56.86-1.21,2.47-1.42v.12a4.32,4.32,0,0,0-1.33,1.07l.31,0a5.74,5.74,0,0,1,1.56-.84c.52.43.25.15,1-.09-.08.29-.16.37.07.61l.3-.28,0,.24a1.54,1.54,0,0,0-.73.89h.34a2.5,2.5,0,0,1,1.06-.83l0,.24c-.71.49-2.07,1.84-2.19,2.59h.17c.25-.28.39-.28.47-.25s.14,0,.17,0a6,6,0,0,0,2.22-2.22h.17v.22a3.35,3.35,0,0,0-.83,1.29h.17a4.56,4.56,0,0,1,1.33-1.31l0,.36c-.1.15-.1.21-.09.48h.17l0-.12c.6-.4.61-.72,1.06-1l0-.13.17.13c.61.71.19,1.74.16,2.64h.16v-.12a5.42,5.42,0,0,0,1-2.39l.2.11h.17a2,2,0,0,0-.22,1.08h.17v-.12c.57-.34.34-.8.73-.89.56.47.14.93.35,1.54.39.07.29.11.68.19,0-.82.36-.83.29-1.72l-.34,0c.18.36.26.32-.1.62l-.13.13-.07-.59c.31-.25.23-.76.37-1.11l.5.19.13-.37a2.58,2.58,0,0,0,1,.15c.19.51.11.88.49,1.19l0-.24c.73-.86.24-1.55,0-2.66h.17l0,.12c.38.26.18.3.38.58.31.06.31.12.7.18,0-.55.3-.48.4-.76.19-.44-.18-.83-.14-1.2.5-.2.48,0,.4-.77.35-.5-.14-.92.19-1.33v.24c.47.33.28,1.23.71,1.63l0-.12.26-.62.17.1c.61.51.15,1.39,1.06,1.74v-.12c.1-.41.22-.82.33-1.23l.34,0c0,.47,0,.55.4.68a8.9,8.9,0,0,1,.17-2.67l.51,0c0,.53,0,1.06,0,1.56l.51,0,0,.24c.81.71,0,1.94-.17,2.8l-1.3.11c-.55.29-2.07.07-3,.1l0,.12.38.34c.44-.21.86,0,1.34.15l-.3.12a2.92,2.92,0,0,1-1,.22l-.16.25a1.59,1.59,0,0,0,.33,0c.09,0,0,0,.2.17a2.7,2.7,0,0,0-1.75,1.95l.16,0,.32-.14c0-.59.1-.71.71-.91l.16-.13,0,.37c-.55.32-.6.67-.68,1.26l.16,0c.16-.19.21-.46.59-.53l.21.24c.19-.08.11-.21.47-.28l0,.35-.27.39c-.53,0-.28,0-.67,0a2.77,2.77,0,0,1-.75,2,.74.74,0,0,1-.39.09.49.49,0,0,0-.42.1c-.29.35-.22.8-.69,1l-1.31.23a4.36,4.36,0,0,0-2.77,1.91h.34a2.14,2.14,0,0,1,1.27-.59v.11a14.06,14.06,0,0,0-1.37.85l-.13.37-1.12.32.1.61h-.17a11.43,11.43,0,0,1-1,1.05c-.6.48-1.43.65-1.66,1.35l.34,0a3.57,3.57,0,0,1,1.83-1.23v.25a4.93,4.93,0,0,0-2,2.31H107a5.15,5.15,0,0,1,3.2-2.3v.12a10.55,10.55,0,0,0-1.49,2.77l.34,0V172a6.65,6.65,0,0,0,1.22-2.15l.17,0,0,.37-.26.39c.5-.07.22-.09.64-.05-.14.24-.27.49-.4.76l-.5,0c0,1-.63,1.29-.69,2.34h.13v-.24c1.06-.8,1-2.39,2.09-3.18l.14-.15,0,.25c-.47.42-.35.64-.19,1.23l-.32,0s-.1-.46-.19-.24l0,.24a5,5,0,0,0-.68,2.47h.3V174c.51-.58.41-1.54,1.09-2l.13-.12.07.59a1.26,1.26,0,0,0-.26.64l.16,0v-.11l.27-.38.17,0,.06.48c-.13.18-.1.32-.09.62l.32,0a1,1,0,0,1,.57-.78c.07.61.14,1.2.22,1.8h.16v-.12c.4-.58.28-1.74.52-2.33h.17c0,.22.07.47.11.71-.1.77-.15,1.54-.22,2.3h.34l.17.09,0-.24c.35-.42.56-2.68.74-3.45l.54.33a1.45,1.45,0,0,1,.19-1l.5,0c0-.21.07-.41.1-.61l.17.09c.14.12.12.1.2.35l.51,0c.08.25.06.22.2.33-.1-.54-.3-.84-.15-1.29a8.34,8.34,0,0,1,1,.52c0-.08,0-.57.06-.85-.56.08-.36.29-.68-.07l.19-.31-.39.07c.11-.21,0-.11.16-.25v.13h.22c0-.26,0-.53,0-.62s.14-.09.47-.16c.21.22.28.2.34.17s.08,0,.21.26l-.2,0c-.06,0,0,0-.11.12l.5.07c0-.31-.07-.63-.11-1-.48-.13-.42-.13-.57-.56l.33,0a2,2,0,0,0,.21.46l.33,0a2.2,2.2,0,0,1,.07-.84l.2.11c.12.11.12.11.2.36a.44.44,0,0,1-.22.09s0,0-.07.16a1.52,1.52,0,0,1,.54.45l.17,0c-.12-.46-.38-.46.06-.73.46.5,1,1.38,1.72,1.68l.17.12,0-.25a4.83,4.83,0,0,1-1.36-1.71,2.5,2.5,0,0,0,1-1.39l.5-.05a2.92,2.92,0,0,1,.06-1l.33,0,0,.36c.29.32-.31,1-.32,1.6l.17,0c0-.49,0-.49.6-.65a3,3,0,0,1,.26-2l.2.24c.43.42.14,1.26.35,1.67h.16c-.17-1.2.16-1.29.42-2,.21-.51-.5-1,.19-1.23l0,.13c.57.58,0,2.14.66,2.71a8.64,8.64,0,0,1-.16-2.64h.17c.07.44.24,1.7.72,1.88,0-.28-.07-.55-.1-.84-.26-.23-.3-.87-.35-1.3h.34c.2.3.2.28.57.43a.77.77,0,0,0-.26.74h.17c.19-.28.19-.24.3-.26.28.18.29.22.41.58-.46.52-.14.84-.32,1.48l-.67-.06c-.15.57-.64.38-.9.77a14.69,14.69,0,0,0-.82,2.73c0,.45.11.87.15,1.32s-.53.87-.32,1.48l0,.12a3.38,3.38,0,0,1,.76,2.12,17.91,17.91,0,0,0-.55,3.65l.31,0c0-.49.06-1,.53-1.24a2.12,2.12,0,0,0,.72,1.87c-.1-.69.24-3.49.54-3.68,0,.24.07.48.1.73-.43.54.24,2.45.66,2.85-.21-1.62-.56-3.08-.17-4.23h.16c0,.4.08.79.15,1.19.22.26-.06,1,.34,1.42a6.25,6.25,0,0,1,.06-2.18h.16a4.52,4.52,0,0,1,.25.71l.16,0a5.11,5.11,0,0,1,.09-2.06l.17.12c1.57,1.51,1.13,7.85,1.5,10.87.44,3.72,1.44,8.62.64,12-.33,1.33.58,2.9,1,3.78,0,.49,0,1,0,1.45a37.48,37.48,0,0,1,.43,6.26c-.14,1.81.31,3.32.08,4.7-.19,1.15.46,2.61.26,3.59a6.62,6.62,0,0,0,0,2.05l-8.31.45c-.52-.76-.89-.58-1.12-.3a6.4,6.4,0,0,0-1.16-1.31v-.08a3.56,3.56,0,0,1,2.27,1.1l.08,0a3.33,3.33,0,0,0-1.56-1.19v-.15a2.53,2.53,0,0,1,1.27.55h.22c-.26-.4-.79-.42-1.21-.66l-.77-.52h-.09l-.06-.36-.7-.1-.15-.2a9.35,9.35,0,0,0-1-.38v-.06a1.26,1.26,0,0,1,.84.22l.2,0a2.92,2.92,0,0,0-1.92-.88H119c-.33-.08-.34-.37-.57-.55l-.53,0a2,2,0,0,1-.74-1.12c-.25,0-.08,0-.41,0l-.2-.22,0-.21.31.12.08-.16.45.27h.08c-.11-.37-.21-.56-.58-.7l0-.22.11.06c.39.06.48.13.57.46l.2.06h.11a1.89,1.89,0,0,0-1.34-1c.11-.19,0-.07.27-.17l-.11-.14-.61,0-.2-.05c.24-.12.46-.3.77-.2l.16-.25v-.06c-.55.05-1.41.35-1.78.21l-.81.07c-.24-.5-.89-1.15-.52-1.66v-.14l.28,0c-.06-.33-.13-.63-.19-1h.31a6,6,0,0,1,.48,1.57c.22-.13.19-.17.12-.45l.23,0c.12.24.27.49.38.73v.06c.5-.28.09-.76.4-1.14l.07-.07.23.35,0,.06c.18-.28-.08-.8.17-1l0-.14c.27.21,0,.51.31.79.06.44,0,.34.38.41.06.23-.11.5.07.73s.28.1.34.42l.39-.18.15-.39v-.06l.11,0c0,.69-.16,1.16.38,1.59l0,.14c.16-.21.07-.42.11-.74a1.25,1.25,0,0,0,.58-.19l.12.22.28-.18c.14.2.15.51.38.63l.06.37-.11-.06c-.25-.13-.19-.13-.15-.36l-.2,0c.1.53.32.5.42,1l.38-.2c0-.39-.29-.62,0-1,.26,0,.18.32.58.47v.08h.12a1.46,1.46,0,0,0-.3-.64l.11,0,.09-.06a4,4,0,0,0,1,1.31v.08l.11,0c-.15-.52-.54-1.11-.29-1.6l.08-.06v.06a6.47,6.47,0,0,0,.79.53v.08h.09l-.12-.3,0-.21a3.58,3.58,0,0,1,1,.65h.11a2.24,2.24,0,0,0-.69-.68l0-.16h.12a4.12,4.12,0,0,0,1.65,1.14.14.14,0,0,0,.11,0,.36.36,0,0,1,.32.11H125a4.17,4.17,0,0,0-1.68-1.36v-.14a1.76,1.76,0,0,1,.76.38h.2a1.13,1.13,0,0,0-.58-.5v-.14l.19.14,0-.37c.48.07.37.27.61-.06a4.7,4.7,0,0,1,1,.38l.2,0a2.73,2.73,0,0,0-1-.52v-.07c1,0,1.16.36,1.69.61a1.34,1.34,0,0,1,1.24.13l.3,0a2.71,2.71,0,0,0-.87-.39l.19-.29a7.62,7.62,0,0,1-1.2-.52v-.06a3.63,3.63,0,0,1,1.74.3h.31l-.43-.28.59-.11c-.6-.27-1.63-.12-2.16-.43l-.12,0,0-.17a5,5,0,0,1,1.85.15l.42,0v-.05a16.4,16.4,0,0,0-2.18-.29v-.14l2.54,0a8.42,8.42,0,0,0-2.69-.26v-.06a7.85,7.85,0,0,1,2.62-.13l.31,0v-.06a27.78,27.78,0,0,1-3.27-.11h-.08l0-.08.65,0a7.25,7.25,0,0,0,2.47-.3h.09V206a3.18,3.18,0,0,1-1,0l-2.5.2c.26-.38,1.19-.18,1.66-.41.53-.06,1.05-.09,1.62-.13l0-.08a6.64,6.64,0,0,0-2.51.19l-.28,0,0-.13c.88-.19,1.77-.4,2.66-.58-.68-.25-2.86.48-3.66.58l0-.21c1.33-.15,2-.46,3.27-.62v-.08A9.17,9.17,0,0,0,126,205a6,6,0,0,1-2.5.22l-.11-.09,1-.12,0-.16-.58.12-.69.06c.08-.2,0-.14.27-.25v-.06l-.61,0,0-.2.5-.06a2.73,2.73,0,0,0-.89,0c.05-.22,0-.2.25-.3-.38-.45-.23-1.18-.8-1.57l.11-.16,0-.06H122v.06a1.47,1.47,0,0,1,.61.78l.3,0a2.62,2.62,0,0,1-.37-1.24l.31.06h.23c-.21-.62-1.22-1.47-.87-2l-.32-.12.16-.24c.25,0,.17.15.54.27l-.19.15a4.45,4.45,0,0,1,1.13,1.7l.19,0a4.63,4.63,0,0,0-.91-1.7l0-.22.34.19h.09c-.1-.24-.1-.24-.35-.34v-.14a5.1,5.1,0,0,0,.7-.12l.65.53c.38.48.35,1.57,1,2.07v.13h.1c-.09-.42-.47-1-.37-1.24v-.14l.11,0,.23.28h.08a1.83,1.83,0,0,0-.49-.85l0-.14a.89.89,0,0,1,.89.59l.3,0c-.46-.52-1.33-.76-1.49-1.51a5.27,5.27,0,0,0,1.5-.27l1,.67h.11a1.14,1.14,0,0,0-.77-.53l0-.16c.72-.16,2.63-.7,3.11-.31h.2l-.35-.36c-.47,0-.53,0-.8.15l-.78.06c.16-.3,1.21-.48,1.46-.41.22-.12.11,0,.16-.22-.55,0-.41-.2-.62-.25l-1,.15a9.12,9.12,0,0,0-1.14-.13,2.88,2.88,0,0,0-1.11.21,1.66,1.66,0,0,1-1.48.05c-.08.14,0,.08,0,.28h-.11l0,.07-.31,0,.16-.25v-.14l-.3.17-.27,0c.09-.33.07-.44.51-.57v-.14c-1.67.35-2.39,1.32-3.63,1.91-.24-.4-.5-.8-.73-1.2l.28-.17c.22.06.46.63.8.81v.09h.1a6.34,6.34,0,0,0-.64-1l.11,0v-.06c.4,0,.42,0,.62.09h.31l-.26-.36a13,13,0,0,1,3.23-1.07l0-.06c-.34,0-.68,0-1,0v-.16l.66-.27h.11l0-.08a4.9,4.9,0,0,0-1.63.63l-.43,0v-.06l1.44-.71h.19v-.15c-.3.08-.25,0-.38.17h-.21c.1-.41.39-.48.86-.51v-.06h-.11l0-.14a7.48,7.48,0,0,0-3.06,1.35H120c.29-.84,2-1.1,2.6-1.83h.2v-.08a9,9,0,0,0-3.13,1.8h-.09c.1-.67,1.2-1,1.75-1.45l.08,0v-.06a4.13,4.13,0,0,0-1.71.94h-.2c0-.38.44-.6.82-.79l0-.08c-1.42.33-2.58,2.66-3.84,3.41l0,.14c-.12-.12,0-.08,0-.29h-.2a1.81,1.81,0,0,1-.31.84c-.21.47-1.65,1-2,1.33h-.11v.09a1,1,0,0,0,.68-.35h.09a7.13,7.13,0,0,0-.09,1.69,10.1,10.1,0,0,0-2.91,1.85,1.3,1.3,0,0,1-.77-.31l-.19,0,.54.32a1.8,1.8,0,0,1-.81.73l-.42,0,0,.31-.5.12-.43.48h-.11c0-.46,1.07-1.45,1.39-1.87l.31,0c-.1-.53-.75-1.71-.48-2.18l0-.14.18.42c.39-.07.35-.11.61.11h.09c-.15-.37-.37-.29-.5-.7.56,0,.57.37.88.58l0,.15,0-.29.26.29v.05h.11c0-.15,0-.22-.06-.5l.54.17c-.07.41-.38.32-.54.65l-.54-.19c-.09-.06-.08,0-.38.12l.54.25h.11V202h-.11l-.28.25,0,.14a2.11,2.11,0,0,0,1.09-.89l.31,0,0,.22.08,0,0-.45c.32-.48.86-.41,1.12-.88h.11l0-.08-.39.11v-.08c-.38-.5-.07-1.37-.75-1.87l0-.51.22.14h.08a2.66,2.66,0,0,1-.07-.67,2,2,0,0,1,1,.67h.19c-.38-.71-1.16-.72-1.57-1.28l-.15-.29.31,0c0-.22-.09-.2,0-.31l.09-.14.26.34.2.07.11,0-.14-.2c-.1-.47-.52-.44-.86-.53,0-.31,0-.29.13-.46h-.09l0-.14-.08.15h-.12c.11-.25.08-.24.47-.32l-.12-.36-.23-.05-.5,0,.34.34,0,.16-.87-.46v-.15c.31,0,.22,0,.42.12h.08l-.35-.27a.9.9,0,0,1,.35-.53v-.15c.37.13,0,.3.35.56l.84.3H113c-.15-.48-.52-.71-.65-1.2l-.07.31c-.28-.09-.31-.19-.24-.35a.74.74,0,0,1,.81.07h.31v-.08a5.14,5.14,0,0,0-.85-.24c0-.51.48-.67.56-1.13.39,0,.44,0,.61.1l.22,0-.57-.33c.16-.47.59-1.06.75-1.53s-.34-.78-.14-1.09v-.14h-.23a2.39,2.39,0,0,1-.55,1.16V190h-.08a.52.52,0,0,1,.13-.44c-.17-.21,0-.09-.31-.06a.85.85,0,0,1,.12-.61v-.14l-.19,0a3.26,3.26,0,0,1-.71,1.67v.08h-.11c.16-.4.18-1,.47-1.29l0-.37c-.33.33-.28.89-.58,1.24l0,.05h-.11a6.25,6.25,0,0,1,.48-1.72l.19-.08c.09.16,0,.09.07.37h.08v-.08h.11a1,1,0,0,0-.18-.51c-.38.12-.38.26-.65.43v-.08h-.12c0-.26,0-.31.16-.45l-.61,0H111l.2.06a.57.57,0,0,1-.15.39l-.12-.28-.2.15-.19,0c-.1-.4-.24-.63,0-.9v-.06c-.27.15-.24.41-.43.62l0,.14H110l0-.44,0-.37-.11,0v.06c-.6.28-.71,1.4-.55,2l-.42-.11a7.1,7.1,0,0,1,.18-2.61v-.23c-.52.3-.14,1.86-.52,2.34v.08h-.11c0-.82,0-1.63,0-2.45-.49.68.16,1.83-.3,2.54l0,.45h-.09c-.53-.86-.17-2.07-.28-3.07-.37.5-.18,2.38-.13,3.1h-.09a12.43,12.43,0,0,1-.47-2.92c-.37.56,0,2.54.09,3.11-.63-.53-.45-2.06-1.05-2.65v-.14h-.12c.15,1.23.25,1.93.4,3.23-.56-.43-.46-1.43-1-1.84l-.12-.14-.19.23a6.87,6.87,0,0,1,.91,1.48,2.63,2.63,0,0,1-1-1.54h-.19a3,3,0,0,0,.79,1.42v.14l-.09,0c-.18-.26-.29-.5-.6-.64V189h-.12a6,6,0,0,0,1.14,1.84.79.79,0,0,1-.24.46l-.61.13c-.15-.27,0-.39-.16-.51-.06-.39-.15-.41-.45-.55l0-.07h-.09l.35.33,0,.3h-.19l-.38-.43.19-.22a1.71,1.71,0,0,0-.49-.77l0-.08h-.08c0,.39-.1.57.19.8-.13.2-.11.14-.47.19l.73.16.15.43c.35.4.91.4.53,1.06l.66.47,0,.14a4.57,4.57,0,0,1-1.07-.28,1.37,1.37,0,0,1-.42-1,.76.76,0,0,1-.62-.16h-.11l0,.28c-.55.09-1.12.14-1.24.48h-.11c0-.22-.07-.47,0-.59l-.34-.05c0-.27,0-.55,0-.81l-.39,0-.08.23a5.69,5.69,0,0,1,.08.67c-.56-.19-.28-1.07-.15-1.26v-.14h-.11c-.14.24-.17.8-.28,1v.09c-.43-.15-.33-.64-.34-1.1a1.35,1.35,0,0,0-.2.77c-.42-.13-.29-.35-.29-.71-.28.13-.19.33-.35.54l0,.06-.12,0a2.52,2.52,0,0,1-.22-1c-.44.26.28.83,0,1.33l-.19.09a2.22,2.22,0,0,1-.45-1.15l.07.67.07.5c-.4-.13-.35-.65-.64-.9v-.08h-.08a2.6,2.6,0,0,0,.57,1.37l-.08.23V192l-.09,0a3.9,3.9,0,0,1-.82-1.65l-.2,0a4.62,4.62,0,0,0,.68,1.49l0,.31h-.09l-.49-.64v-.06l-.15.51c-.45,0-.17-.1-.5.05a5.48,5.48,0,0,1-1-1.12l-.2,0a5,5,0,0,0,1,1.1l0,.14a3.53,3.53,0,0,1-1.25-1l-.19,0,1.49,1.42v.08h-.2c-.34-.2-.54-.26-.69-.66h-.2l0,.44v.07a2.2,2.2,0,0,1-1.07-.65h-.2c.18.32.46.41.58.78l-.92-.24-.08.24c.65,0,.66.39,1.08.58a3.83,3.83,0,0,0,.33.85l-.31,0c-.06-.23-.06-.11,0-.36h-.11l-.16.39c-.08.15-.14.15-.22.15a.62.62,0,0,0-.17,0l-.35.31a3.5,3.5,0,0,0,1.54,1.14l0,.22a4,4,0,0,1-1.5-.69h-.19c.17.24.28.32,0,.51a3.6,3.6,0,0,0,1.31.65l0,.21a2.52,2.52,0,0,1-1.15-.36l-.11,0c.12.24,1.36.64,1.72.75l-.15.31c-.31-.08-.23-.2-.46-.25s-.9-.12-1.23-.21v.08H94c.34.23.51.18.94.3l0,.14-.3-.06-.22,0,.49.54c-.14.21,0,.12-.4.19a5.19,5.19,0,0,0,1.24.19c-.11.16-.44.14-.8.06l0,.08h-.12a4.56,4.56,0,0,0,1.65.14v.09h.09c-.21.21-.39.13-.89.13.23.12,1.15.24,1.46.34l0,.2c.78,0,1,.14,1.73.1a2.18,2.18,0,0,0,.08.73h.11v-.07c0-.06,0-.15,0-.37l.28,0,.15.37c.25-.13.14,0,.19-.23h.2l0,.43-.39.12.24.19c-.13.28,0,.17-.31.18l.15.27.11.14c.08-.22.14-.22.14-.51l.22,0,.35.42v.14c.11-.13.07-.37,0-.59.84.16.39.79,1.07,1.17V202h.12c-.12-.28-.45-.7-.34-.92V201h.12c.26.32.72.9.34,1.29,0,.3.07.58.11.89l.11,0c.13-.39,0-.86.28-1.13.25.3.15.86.43,1.14l0,.08.22-.07.05,0H103a.8.8,0,0,0-.34-.5c0-.22,0-.24.13-.37l.2-.08c.37.25.32.45.6.75s.88.52,1.11.86l-.2.76.42.2,0,.14a23.71,23.71,0,0,1-4.14-1.51h-.11v-.06a2.11,2.11,0,0,1,1,.28h.11l-.12-.14a13,13,0,0,0-2-.59l-.35-.26-.58,0c-.82-.5-1.62-1-2.41-1.49a6.47,6.47,0,0,1-1.19-.5c-.44.1-.38.21-.76.35-.32-.2-.74-.25-1.08-.45l-.2,0a3.32,3.32,0,0,0,1,.44c-.07.28-.07.08,0,.37l-.3.09c-.49-.45-1.07-1.13-1.61-1.56l-.54-.17-.12-.3-.38.11c-.34-.22-.68-.45-1-.67H90l1.31.94,0,.09a4.24,4.24,0,0,1-2-1.19v-.06l-.35.32c.46.25.94.56,1.39.78l0,.22c-.87-.08-1-.87-2.23-.94.17.44,1,.6,1.5.77V200a6.29,6.29,0,0,1-2.54-.91V199H87l0,.07h-.11l.42.25,0,.14a1.18,1.18,0,0,1-.85-.3l-.58.29h-.2l.51.1v.08c-.36,0-.73,0-1.08,0,.53.21,1.34,0,1.93.21s1.29.47,1.91.66l-.27.31c-.33,0-.78,0-1.25,0a5,5,0,0,0-2.56.23l-.11,0a8.39,8.39,0,0,0,1.22.11,21.91,21.91,0,0,0,2.62.68,5.89,5.89,0,0,1-.52,1.46c0,.24,0,.48.08.73.38-.23.43-1.7.58-2a35.44,35.44,0,0,1,4.06.13l0,.06H93a.53.53,0,0,1-.24.46v.17c.36-.13.36-.23.46-.48l.19-.09.39,0a1.56,1.56,0,0,1-.89,1l0,.2a1.4,1.4,0,0,0,.73-.65l.12.21.41,0-.14-.22c.37.13.27.48.49.72l.07.43c-.28-.08-.34-.32-.37-.56-.41.56.46,1.62.36,2.19a.73.73,0,0,0,.3.79l-.07.3c-.08.07-.06,0-.09,0s-.08,0-.22,0l-.08.06.65.25c-.08.21-.13.19-.27.33a6.56,6.56,0,0,1-2.11-.51c-.27.11-.24.13-.35.32l-.5.05.15.28a6.67,6.67,0,0,1-1.54.64c.2.53-1.76.79-2.36,1.2l1-.12.31,0v.06a6.09,6.09,0,0,1-1.54.58h.61l.09.08a2.15,2.15,0,0,1-1.16.38l0,.15.89-.21.39,0c-.11.27-.35.27-.55.49H88l0,.08a1.36,1.36,0,0,0,.57-.21l.19,0a.5.5,0,0,1-.35.4l0,.31c.3-.2.22-.34.66-.29l-.18.16,0,.14c.47-.13.27-.21.35-.46l.09,0v-.06l.14.2a6.5,6.5,0,0,0,1.82-.73l.39,0,0,.06a13.92,13.92,0,0,1-2.12,1l0,.3c.36-.13.13-.22.35-.39l1.08-.38.3,0a1.79,1.79,0,0,1-.82,1.69l0,.15a3,3,0,0,0,1.06-1.27h.29c0,.23,0,.24,0,.42-.58.33-.7.94-1.25,1.22l.31.25.28-.46.19-.08.12.2-.27.39-.47.12c-.3.32,0,.41-.54.71l.3.05,0,.29h-.17c-.06,0,0,0-.14-.12-.11,0-.32.66-.81.94l0,.08c.3-.09.3-.21.59-.12l.07-.3c.11-.18.49-.36.63-.58h.3c.28.14-.42,2.29-.72,2.41a1,1,0,0,1,.19.73H91a1.56,1.56,0,0,0,.24-.63h.1l.09.07c-.1.41-.23.79-.36,1.21l0,.29.31.05c.21-.51.08-1.21.43-1.66l0-.14.3.64v.14h.12c0-.52-.35-1.38,0-1.79v-.05c.3.07.14.07.15.34h.2c0-.34.1-.39-.26-.5a.74.74,0,0,1,.2-.68,4,4,0,0,1,1.4,2.18H94v-.08c.48-.36.36-1.1.82-1.47v-.06l.42.16.08-.29a1.63,1.63,0,0,1,.33,1l.28,0v-.23c.28.05.28.09.42.28l.11,0-.26-.57a7.88,7.88,0,0,1-.14-.95c.42.15.5.82.84,1l0,.16.2,0a4.65,4.65,0,0,1-.41-1.59H97a1,1,0,0,0,.49.62v.07l.2,0c-.15-.44-.29-.34-.3-.87a.61.61,0,0,1,.46.5c.35-.48-.26-1.3,0-1.71l0-.06c.26.22.15.45.57.54a1,1,0,0,0-.09.82l.08-.29h.08v.06l.57.55,0,.14h.11c-.12-.45-.67-1.3-.51-1.66l.07-.16c.35.42.45,1.13.9,1.48l.08-.08.06.59,0,.29c.71-.39.29-1.6-.25-2l0-.29a1.79,1.79,0,0,1,.88.52l.2,0c-.4-.37-.88-.73-1.34-1.08l.08-.29,0-.08h.1a4,4,0,0,0,.58.62v.08l.11,0a1.52,1.52,0,0,0-.38-.62l.11,0,0-.06h.12l.23.19V212l.11,0c-.12-.52-.84-.93-1.26-1.22l0-.14a2.47,2.47,0,0,1,1.33.86h.08l.15-.39.2-.09.15.42,0,.09H101l.15-.54.42.19.13-.53c-.09-.1-.05-.1-.11-.1l-.21,0,.16-.31v-.17c.32.26.7.84.34,1.17l0,.21c.22-.19.19-.39.55-.32a6.77,6.77,0,0,0,.39-1l.19-.09c.09.2,0,.4,0,.75.2-.21.15-.49.31-.7V210l.08,0c.58.82,1,1.5,0,2.3l0,.14a2.18,2.18,0,0,0,.63-.71c.25.09.17,0,.22.27h.12a2.16,2.16,0,0,1,.16-1.06v-.06c.63.19.16.51.08.73s.26.39,0,.65l.07.53.08,0,.07-.29.51,0c-.07-.39-.19-.75-.11-.89l-.07-.42.53,1,.23.14a1.84,1.84,0,0,1,.38.79c.19-.24-.11-.9-.34-1.09.13-.43.61-.35.31-.82l.43.11a3.51,3.51,0,0,1-.09,1c.1.47.19.94.27,1.38,0,.08-.28.05-.16.39.26.63,1.11,2.8.93,3.4-.11.36-.65.75-.78,1.1l.07.51a4.44,4.44,0,0,1-1.32,1.72l0,.14.36-.25h.11a2.35,2.35,0,0,1-.7,1l0,.08.31,0a2.78,2.78,0,0,1,.71-.71l.22,0a4.11,4.11,0,0,1-.54,1.38v.14h.11l.16-.23v-.09h.11v.06h.11l-.19.31.12.15.11-.08-.15.53a1.2,1.2,0,0,0,.81,0c0,.21.06.43.1.65l.19-.09c.29.25.26.47.27.79h.12a1.48,1.48,0,0,1,.42-.77l.11.28c.12.06.12,0,.4-.11a53.68,53.68,0,0,0,1.91,9.82c.09.33-.24,1.4,0,2s.51,1,.71,1.48-.15,1.25.11,1.85a4.81,4.81,0,0,1,.29,2.34c.16.73.32,1.45.48,2.18,0,.27-.19.3-.26.46.16,1.06.32,2.09.5,3.15a21.46,21.46,0,0,0,1,5.45c.41.94.12,1.64.51,2.55.54,1.23.3,2.78.78,3.93,0,.43.05.88.06,1.33.87,2,.45,4.07,1.22,5.86.24,1.38.48,2.74.71,4.1.23.55.29,1.5.56,2.1,0,.4.1.83.14,1.23.3.54,0,1.57.4,2.34a2,2,0,0,1,.09.23l-3.94,7-1.41.57h-.2l-1.29.61c-9.92,4.15-22.49,10.44-32.95,15.63L24.17,325.81l-.93,1.08C8.55,344-6.67,371.07,4.17,402.61a76.54,76.54,0,0,0,19.75,30.48l.7.61L395.36,608.29l2.87,1.35L769.67,433.46l.94-1.13C788.18,411.32,795.94,390.32,793.69,369.91ZM703.62,181.58c-2.12-.75-3.44-1.85-3.44-3.69,0-2,1.67-3.53,4.2-3.53a5.92,5.92,0,0,1,2.88.63l-.46,1.37a5.18,5.18,0,0,0-2.46-.62c-1.78,0-2.46,1.06-2.46,1.95,0,1.22.8,1.81,2.59,2.51,2.2.85,3.32,1.91,3.32,3.82s-1.49,3.75-4.55,3.75a6.69,6.69,0,0,1-3.31-.83l.42-1.41a5.93,5.93,0,0,0,3,.85c1.72,0,2.72-.91,2.72-2.22S705.38,182.26,703.62,181.58Zm-11.43-7h2l4.43,13h-1.8l-1.39-4.09h-4.61l-1.35,4.09h-1.74Zm-9.63-.14a8.06,8.06,0,0,1,3.25.6l-.41,1.37a6.77,6.77,0,0,0-2.87-.56,4.86,4.86,0,0,0-5.23,5.23c0,3.3,2,5.25,5,5.25a5.44,5.44,0,0,0,2.24-.35v-3.87h-2.64v-1.35h4.28V187a12.1,12.1,0,0,1-4,.71,6.11,6.11,0,0,1-6.68-6.56C675.55,177.28,678.21,174.45,682.56,174.45Zm-15.76.14h7V176h-5.34v4.11h5.05v1.38h-5.05v4.69h5.63v1.41h-7.31Zm-512.48-16c.34.32.48.32.58.93-.11.12-.07.1-.1.37l.48-.05a1.14,1.14,0,0,1,.12-.49h.33v.22c.57.39.29,1.31.25,2h-.33v-.11a5.51,5.51,0,0,1-1.5-2.91Zm-9.89-15.67a11.48,11.48,0,0,1,2-1.13v.12a7.71,7.71,0,0,1-1.46,1.56c0,.41.08.88.31,1.07-.12-1.15.78-1.08,1.09-1.9l.47,0a13.46,13.46,0,0,0-.12,1.57h.17l0-.12a3.11,3.11,0,0,0,.66-1.51h.33c0,.23,0,.47.07.71a16,16,0,0,0-.37,2.34c.22.09.28.07.3,0s.05,0,.23.14c-.34.16-.47.24-.61.52.62.19.71.25.79.92-.7.42-.82,1-1.84,1.24a2.94,2.94,0,0,1-1.13.21c-.63-.72-.65-2.33-.76-3.46C144.12,144.76,144.28,143.54,144.43,142.93Zm-1.33,2.64,0,.25a4.16,4.16,0,0,1,1.06,1.84l-1-.05c-.09-.67-.19-1.34-.26-2Zm3.71-17a3.53,3.53,0,0,1-2.27,1.76v-.12l.17,0A4,4,0,0,1,146.82,128.61Zm-1.56-2.05c.18.58-.71,1.53-1.43,1.91l0-.34C144.42,127.66,144.42,126.88,145.25,126.55Zm-25.16,15.14-.5,0c-.34-.33-.71-.4-.92-.89.9-.8.15-2.55,1.42-3.14.13.65.35.5.61.8A16.71,16.71,0,0,1,120.09,141.69Zm2.7-2.27a2,2,0,0,1,.23-.86c.75,0,.42,0,1-.32,0,.45.11.88.15,1.33C123.24,139.51,123.68,139.38,122.79,139.42ZM108,138.78l.33,0a2.11,2.11,0,0,1-.22,2.19c-.16.11-.17.09-.49.15a1.4,1.4,0,0,1-.25-.58A3,3,0,0,0,108,138.78Zm-.68,10.56a6,6,0,0,0-1.47.23l0-.24c-.72-.71.48-3.92.83-4.16.16-.1.13-.08.47-.15,0,.64-.36,1.11-.45,1.72.66-.12.77-.28,1.13-.21.14.11.12.1.21.34C107.45,147.49,107.59,148.62,107.28,149.34Zm2-1a5.3,5.3,0,0,0-.66.18c-.17.27,0,.53-.07.71l0-.22c-.56-.13-.44-.07-.57-.58.75-.32.75-.22,1.06-.93l.5,0A2.28,2.28,0,0,1,109.32,148.32Zm1.23-8.67c-.23-.18-.11-.14-.51-.21.16,1,.09,2-.89,2.24-.27-.25-.37-.14-.57-.55a2.13,2.13,0,0,0,.49-1.5l.5,0c.24-.32.35-.2.4-.74l.5-.05c.09.28.15.57.24.83Zm10,63.09c.19-.07.29,0,.71,0a10.73,10.73,0,0,1-.54-1l.31.05c.26.09,1.45,1.91,1.1,2.41l0,.14c-.47,0-.59-.08-.92,0-.29-.4-.36-1.08-.76-1.42Zm-8.7-4.12c.84.22.65,1.35,1.3,1.74-.06.31-.25.39-.44.63l-.28,0a10.61,10.61,0,0,1-.86-1.84C111.67,199,111.82,199,111.81,198.63Zm-13.51,9a1.55,1.55,0,0,1-.7,0c-.67,0-.82-.37-1.3-.55-.07-.41,0-.45.32-.62l-.42-.24c.07-.13.07-.11.1-.11s.08,0,.17-.07l-.57-1.37,0-.42.2,0a2.48,2.48,0,0,0,.61.84v.08h.12a7.42,7.42,0,0,0-.34-.95l.31,0c.32.48.85.35.95,1,.11-.13,0-.41,0-.66a8.51,8.51,0,0,1-1.11-.8v-.08a10.55,10.55,0,0,1,1.38.49c.18.36.45,1.07.26,1.38A4.2,4.2,0,0,1,98.3,207.58Zm5.93-1.26c-.89.06-2,.4-2.61.13-.14-.12-.21-.53-.5-.7l-.07-.45a4.18,4.18,0,0,1,1.5.63l.11,0c-.46-.73-1.56-1.08-1.87-2.07a23.08,23.08,0,0,1,4.46,1.64C105.09,205.85,104.51,206,104.23,206.32Zm1.68-1.84a7.16,7.16,0,0,0-1.72-1.78c-.07-.47-.09-.37-.46-.47l-.06-.45h.19l0,.29.34,0c.7.2,1.24,1.7,1.88,2.15l0,.22Zm550.54-29.89,2,6.4c.56,1.76,1,3.34,1.39,4.86h0c.37-1.5.91-3.14,1.49-4.84l2.2-6.42h1.79l-4.65,13h-1.86l-4.24-13Zm-2.24,31.31.46.18-.18,25.44-.85-1-7.88,1.4-.14-1.44-.79-.76-.65.08-.36-.45v-1.22l-.78-.77-1.38.37-.42-.27-7,1.2.2-30.5,1.18.46a1.3,1.3,0,0,1,1.64.64l1.79.7a1.51,1.51,0,0,1,.23,0,1.33,1.33,0,0,1,1,.54l2,.8a1.22,1.22,0,0,1,.32-.06,1.33,1.33,0,0,1,1.11.62l2.1.82a1.2,1.2,0,0,1,.22,0,1.33,1.33,0,0,1,1.06.55l2,.77a1.27,1.27,0,0,1,1.62.63l1.84.72a1.4,1.4,0,0,1,.44-.09A1.33,1.33,0,0,1,654.22,205.89Zm-.94-60.62L649,138.94l4.36-.47Zm.09-9.65-4.38-.88,4.45-6.18Zm-.36-7.54-7,5.18-.56-5.18Zm-7,13.57,7.25,4.39,0,5.59a6.61,6.61,0,0,0-2.13-.36,6.53,6.53,0,0,0-6.14,4.29l-.84.39Zm.91,32.71a5.89,5.89,0,0,1,2.87.63l-.46,1.37a5.18,5.18,0,0,0-2.47-.62c-1.78,0-2.45,1.06-2.45,1.95,0,1.22.79,1.81,2.59,2.51,2.2.85,3.31,1.91,3.31,3.82s-1.48,3.75-4.55,3.75a6.73,6.73,0,0,1-3.32-.83l.42-1.41a6,6,0,0,0,3,.85c1.72,0,2.72-.91,2.72-2.22s-.7-1.91-2.45-2.58c-2.12-.75-3.43-1.85-3.43-3.69C642.74,175.88,644.42,174.37,647,174.37Zm-3.2-18.23-.08,0a6.53,6.53,0,0,0-8.55-4.5l0-5.71,7.52-4.55ZM635,138.33l4.86.86-4.8,6.33Zm8.09-10.25-.52,4.69-6.25-4.69Zm-7.74,0,4,7.16-4.38.48-.06-7.63Zm-.62,46.5h2l4.44,13h-1.79L638,183.49h-4.61l-1.35,4.09h-1.74Zm-12.54,13v-13h1.68v11.59h5.55v1.41ZM444,204h7.6c0,1.52,2,12.33,2,12.33H442.17C442.69,215.18,444,204,444,204ZM447.75,236c5.86.16,9.87,2.2,12.62,4.87q-12-.68-24.34-1.06A19.17,19.17,0,0,1,447.75,236ZM404.81,79.57l.32,5.86c-1.52,2.25-3-6.69-3-6.69C402.18,79.1,404.81,79.57,404.81,79.57ZM216,182.88a54,54,0,1,1,72,50.87c-1.46-7.62-14.49-50.75-16.14-56.22v-1a2.47,2.47,0,0,0,1.15-2.09,2.49,2.49,0,1,0-3.89,2.06v1c-2.1,5.17-15.15,48.74-17.36,56.13a54.13,54.13,0,0,1-30.41-27.35l.1-2.46,1-1.1-.52-.47c0-1.41-.89-.26-.89-.26l-1.77-.44A54,54,0,0,1,216,182.88Zm68.79,51.91a54,54,0,0,1-12.9,2V191.94C274.63,202.7,283.63,231,284.83,234.78Zm-12.9-46.34V182c1.21,5.34,4.56,17.64,7.73,29.05C276.35,201.21,273,191.42,271.93,188.44Zm-6.54,7.08c1.8-7.14,3.21-13.28,3.8-16.35v6.31C268.48,187.33,267.08,191,265.4,195.52Zm3.8-6.58v47.89a53.7,53.7,0,0,1-14.73-2.27C256.31,228.92,266.08,199.12,269.19,188.94ZM239,240l-.1,13.6q-9.21,1.6-18.52,3.4l.41-36.78a3,3,0,1,0,3-3,3,3,0,0,0-3,3l0-4,1-.94.16-.84-.95-.26.13-3.16a56.49,56.49,0,0,0,30,25l-.69,1.58-13.65.29v2.05Zm-99.21-96.76c-.09,1.65-1.71,2.51-2.17,3.81l.16,0a5.84,5.84,0,0,1,2.17-1.37,7.14,7.14,0,0,0,.08.72c-.42.36-.36,1-.53,1.25a6,6,0,0,1-2.89.43c-.47,0-1,0-1.36,0-.54-.42-1.55-.5-1.93-1.07C135.41,145.85,137.21,144.15,139.83,143.28Zm-11.66-6c.18,1.48.34,2.07.4,3.35l-.31,0,0-.12c-.52-.47-.63-2.22-.74-3.19Zm-2.48-.05h.17c.3.91.86,2.08,1.21,3.17l-.51,0C126.17,139.12,125.47,138.57,125.69,137.26Zm.48,8.06c0-.2-.45-1.14-.39-1.79.36-.18.75-.37,1.11-.57-.07.5-.24.46-.39.87h.16a1.27,1.27,0,0,1,.77-.43c.23,1.28.81,2,.37,3l-.31,0C127,146,126.44,146,126.17,145.33ZM115,145.11a1.61,1.61,0,0,1-.47.16,1.61,1.61,0,0,1-.45-1.07,2.5,2.5,0,0,0,.49-1.24l.5,0A2.59,2.59,0,0,1,115,145.11Zm5,.2s.66-.1.33-.15l-.16,0c-.48-.14-1.69-.3-2.39-.54-.15.54-.46.75-1.4.83a2,2,0,0,0-.84-.3l0-.12.51.08c0-.49-.12-1-.18-1.44.18-.23,0-.21.13-.37l.3-.15a4.93,4.93,0,0,1,.61.93c.3-.18.27-.26.63-.41a24.26,24.26,0,0,0,3.1,1.1l-.1.37c.67-.06.84-.09,1.18.15l.16,0v.12l-.17,0,0,.13C121.15,145.46,120.28,145.52,120,145.32Zm2.61,3.66c-.18-.14-.18-.29-.24-.58a4.78,4.78,0,0,1,1.77-.38v-.12l-.33,0a12.14,12.14,0,0,0-1.68-.11,1.58,1.58,0,0,1-.44-.92l.51.06a1.24,1.24,0,0,1,.05-.83,1.84,1.84,0,0,1,.81-.19c.94.68,2.64.82,2.9,2.06,0,0-.64.08-.3.15l.33,0,.91.66c.1.34.19.71.28,1.05-.41,0-.75,0-1.09,0a11.38,11.38,0,0,0-1.86.09,1.85,1.85,0,0,0-.71-.43l-.06-.36-.81.06Zm1.54,7.14c0-.29-.07-.57-.11-.86l-.17,0,0,.1c-.25.21-.1.25-.46.4-.31-.23-.5-.19-.74-.53a3.67,3.67,0,0,1,1-.21c-.09-.49-.21-.58-.11-.95h.16c0,.38.08.85.31,1l0-.22c.25-.37,0-.83,0-1.11.36.2.28.21.53.21.33-.26.16-.29.77-.43l0,.24a.94.94,0,0,1,0,1.21A1.45,1.45,0,0,1,124.18,156.12Zm2.23,6.21v-.1c-.77-.61-1.13-2.39-1.24-3.41l.33,0a15.7,15.7,0,0,1,1.08,3.53Zm.87.3v-.12a8.35,8.35,0,0,1-1.2-3h.17v.22c.42.36.55.9,1,1.26-.18-1.87-1.86-2.65-2.48-4.15.71-.62,1-1.49,2.1-1.87a2,2,0,0,1-.19,1.22,5.38,5.38,0,0,1,1.17,0,10.82,10.82,0,0,1-.06,5.09c-.61.06-.45-.08-.43.5a1.24,1.24,0,0,1,.28.83Zm2.1,8.9-.34,0c-.07-.56-.14-1.12-.21-1.68.77-.78-.25-2.17-.36-3.11a5.77,5.77,0,0,0-.75-2.11c-.3-.63.19-2.35.27-3.05l.34,0c.44.72-.22,1.21.09,1.94A16.72,16.72,0,0,1,129.38,171.53Zm1.46-40.82c-.21-.28-.18-.19-.51-.33.18-.53.5-1.62,1.08-1.88.25-.11.36-.07.42,0s.06.1.22-.15h.17l0-.13-.3,0a8.7,8.7,0,0,1-1.57.72l0-.26c.19-.17.19-.22.26-.49-.47.07-.3.27-.67-.06-.8-.71.36-1.29.62-1.75l-.54-.31c.55-.16.75,0,1.1-.46l-.5,0c-.16.11-.14.09-.47.16l-.21-.34H130c.19-.33.05-.2.61-.31s.81,0,1.34,0l0,.37.5-.05a1.31,1.31,0,0,1,.45.94.74.74,0,0,1,.38.46,1.07,1.07,0,0,0-.44.52h-.3c0-.35.24-.16-.24-.34-.27.43-.61.28-.7.9a1.4,1.4,0,0,1,1,.39c-.11.14-.05,0-.13.27-.33.09-.64.2-1,.32.23.34.34.25.58.55l-.16,0-.48.15a6.42,6.42,0,0,0-.38,1Zm1,14.9-.33,0,0-.36c.81-.88,1.08-3.41,2.18-3.91.16-.11.13-.09.46-.16l0-.49.3,0c0,.24.08.5.11.73-.58.28-.64.1-.56.89A10.28,10.28,0,0,0,131.84,145.61ZM112,203.35c.17-.17.28-.17.7-.2l-.15-.23a14,14,0,0,0,1.73-.94l.42.19.21-.61.22,0,.12.23c0,.28.07.59.11.87l.3-.09v.06l-.48.28c-.58,0-.77-.06-.95-.39a12,12,0,0,1-1.36.55l-.11,0,.23.05c-.11.13-.67.19-1,.29v-.08h-.07l0-.06Zm-2.63,2.56.46-.48h.2l-.2-.05c-.06-.78,1-1,1.44-1.52l.5,0a.68.68,0,0,1,.16.5l.3-.11a1.1,1.1,0,0,1-.12.61,5.54,5.54,0,0,0-1,.21l-.2,0v.05a3,3,0,0,1,1.12.07l0,.36v.14l-.5.06,0,.2-.35.34a15.17,15.17,0,0,0-1.81.21C109.32,206.35,109.34,206.14,109.33,205.91Zm1,3.7c.73.1,1,.6,1.53.92-.14.94-1,1.58-.87,2.71.19-.25.17-.59.39-.82l0-.17h.11a4.77,4.77,0,0,1-.28,1.95l0,.08H111c0-.2,0-.39,0-.51-.06-.37,0-.31-.32-.28a6.56,6.56,0,0,1-.78-3,2.67,2.67,0,0,1,.69-.14A1.12,1.12,0,0,1,110.3,209.61Zm.35,5.29c.07-.44-.38-.68-.26-1.15l.22,0a5.7,5.7,0,0,1,.61,1.8,3.75,3.75,0,0,0-.13,1.35c.08.56-.35,1.49.22,1.89,0,.34.1.68.14,1h-.19A9.81,9.81,0,0,1,110.65,214.89Zm7.12,43.38c-.07-.61-.14-1.22-.22-1.82-.33-.75-.16-1.82-.55-2.7a11.82,11.82,0,0,1-.6-2.46c0-.47-.11-.92-.14-1.38-.39-.87-.15-2.19-.63-3.2-.24-.59-.06-1.53-.36-2.2s-.27-1.76-.64-2.83a22.08,22.08,0,0,1-.66-3.79,8.19,8.19,0,0,0-.22-.87,4,4,0,0,0,0-2.36c-1-2-1.12-5-1.38-7.27-.25-1.85-1.44-5.6-.71-6.66l.08-.08a2.8,2.8,0,0,1,.34,1.22l.11,0,.05-.45h.1a4.94,4.94,0,0,1,.35,1.32c.19-.27-.1-.71,0-.89a5.5,5.5,0,0,1-.07-.74h.08a6.3,6.3,0,0,1,.52,2.53c.22-.27.32-1.48,0-1.78l0-.42a6.44,6.44,0,0,1,.86,2.13c.33-.33.23-.75.17-1.18.31.09.42.39.5.69l.19,0a14.46,14.46,0,0,0-.87-2.14c-.24-.51,0-1,.12-1.35v-.06c0-.39-.29-.62-.41-.87s-.07-.53-.11-.79a7.26,7.26,0,0,0-.88-1.56c-.22-.21-.5-.06-.65-.39l-.42.09c-.2-.36,0-.59-.38-.84a.39.39,0,0,1,.15-.39l.2.14h.11c-.06-.3-.09-.28-.26-.41l.27-.32.2,0c.06.27.13.64,0,.81l.07.5c.27-.14.17-.91.17-1.18h.11a5.94,5.94,0,0,1,.3,1.61c.27-.42-.29-1.3,0-1.72v-.06c.45.05.1.43.31.71s.45.41.54,1.15h.11c0-.27-.25-.75,0-1l.07-.16a2,2,0,0,1,.42,1.14c.39.05.37.05.45.34h.12c-.1-.37-.55-.7-.42-.93l0-.22h.19a1.51,1.51,0,0,1,.19.56h.31a1.58,1.58,0,0,0,.8.73,2.67,2.67,0,0,1-.58,1.15l0,.17.08-.09c.36-.25.56-.85.78-1.18.31.13.14.14.15.44l.09,0,.26-.31-.22-.12.08-.25.11-.07a1.35,1.35,0,0,1,.15.51l.19,0,.08-.31H117c0,.27,0,.27-.26.4l.07.59.3-.11-.2-.06c0-.18.05-.16.11-.16s.09,0,.14-.15l.3.05.13.38h0l.12,0v-.07l.11.14-.25,0,.17.16c-.13.25-.05.1-.42.11l.18.51.55-.42a1.5,1.5,0,0,1,.11.81l.08-.22.3,0,0-.22.12-.09.15.37.28,0a1.12,1.12,0,0,1,.3.56l.27-.23a11.43,11.43,0,0,0,1,2v.14l.1-.08H121c-.15-.46-.31-.9-.49-1.37l0-.43.12,0c.23.34.33,1,.65,1.36v.06h.11c0-.36-.08-.73-.14-1.09a.67.67,0,0,1,.45.41l.2,0-.12-.37,0-.28h.08l.23.2V219l.1,0-.23-.34-.06-.37.11.06c.48.23.55.81.95,1.11v.06h.22a3.84,3.84,0,0,0-.79-1.43l0-.14-.08.16H122c0-.37,0-.52-.3-.71v-.16l.12.07c.72.36.93,1.21,1.6,1.64l0,.28.31.26-.16,2.1-.52.16.11.58.94.73-.21,7.61-.73.26.15.63.79.84-1.23,46.81s0-.07,0-.1c-.21-.5-.15-1.32-.42-2-.77-1.69-1.15-3.93-1.91-5.61-.13-.84-.28-1.66-.4-2.47-.9-2-.58-3.89-1.42-5.73-.07-.59-.13-1.17-.21-1.76C118.17,260.76,118.1,259.28,117.77,258.27Zm.84,20.16c0,.16,0,.33,0,.5a1.06,1.06,0,0,1-.06-.58ZM761.24,422.6l-363,172.19L32.13,422.39a63.8,63.8,0,0,1-15.26-24.15c-6.93-20.15-1.67-40.84,15.65-61.53L112,299h564.6l85.34,38c2.87,2.44,16.27,14.77,18.43,34.35C782.14,387.67,775.71,404.89,761.24,422.6Z"/><path class="cls-2" d="M137,175.68v.24l-.3,0,0-.12Zm0,0"/><path class="cls-2" d="M160.14,149.95l.31-.15c.31.39.25.29-.44.4l0-.24Zm0,0"/><path class="cls-2" d="M160,151.76l0,.24-.33,0v-.12h-.16v-.12Zm0,0"/><path class="cls-2" d="M157.4,150.53a2.59,2.59,0,0,0,.88.4l0,.12h-.18v.12c-.51-.15-.87-.21-1.08-.65Zm0,0"/><path class="cls-2" d="M157.07,158.77v-.12h-.17c0-.26-.17-.18.1-.49a1.35,1.35,0,0,1,.23.58Zm0,0"/><path class="cls-2" d="M157.06,154.53c.38.34.77.51,1.12.89l-.5,0c-.32-.22-.6-.44-.91-.65l0-.25Zm0,0"/><path class="cls-2" d="M156.78,152.14l.51.21,0,.24H157v-.1l-.2-.24-.17,0Zm0,0"/><path class="cls-2" d="M156.58,156c.22.16.19.08.37.32l-.47.05-.2-.23Zm0,0"/><path class="cls-2" d="M156.56,158.56c-.1.41.09.18-.29.39l0-.36Zm0,0"/><path class="cls-2" d="M156.31,159.18c0,.25.27.08,0,.25l-.16.15,0-.37Zm0,0"/><path class="cls-2" d="M155.18,158.19c.08-.22,0-.12.13-.24l0,.1h.14c.33.07-.3.15-.3.15Zm0,0"/><path class="cls-2" d="M154.81,152.42H155l.41.55-.34,0v-.12l-.2-.22h-.17l.17-.12Zm0,0"/><path class="cls-2" d="M154.48,147l0,.24h-.33v-.12Zm0,0"/><path class="cls-2" d="M152.62,160.07a1.75,1.75,0,0,1-.09.73h-.16l-.07-.59Zm0,0"/><path class="cls-2" d="M149.68,145.58a4.19,4.19,0,0,1,.35,1.53l-.47.16c-.17-.14-.2-.28-.24-.59.22-.33.09-.84.36-1.1Zm0,0"/><path class="cls-2" d="M143.64,149.07h-.17v-.12l.81-.06,0,.24-.66.07Zm0,0"/><path class="cls-2" d="M144.24,152.75l-.14,0-.07-.36.33-.15Zm0,0"/><path class="cls-2" d="M143.4,148.6v-.12l.17,0v-.12l.8-.07,0,.24-1,.09Zm0,0"/><path class="cls-2" d="M144.76,151.39l-.06-.37.33,0c-.07.41.12.19-.27.4Zm0,0"/><path class="cls-2" d="M145.49,150.72h.17c0,.24,0,.22-.12.37Zm0,0"/><path class="cls-2" d="M145.61,159.9h-.14l-.07-.33c.24-.28.27-.57.56-.78a2.09,2.09,0,0,1-.36,1.11Zm0,0"/><path class="cls-2" d="M145.55,153.86a1.58,1.58,0,0,1,.23-.74h.16a5.09,5.09,0,0,1,.08.71Zm0,0"/><path class="cls-2" d="M146.09,158.43v-.13l.11-.39.07.49Zm0,0"/><path class="cls-2" d="M147.9,157v-.13l-.2-.24.33-.13,0,.47Zm0,0"/><path class="cls-2" d="M148.59,155.68a1,1,0,0,1,.21.47l-.31,0-.06-.49Zm0,0"/><path class="cls-2" d="M147.94,142.33l.07.34-.17,0c-.42-.12-.44.1-.8.32l0-.37c.3-.1.63-.22.94-.3Zm0,0"/><path class="cls-2" d="M146.25,142l.3-.15-.13.39h-.31l0-.23Zm0,0"/><path class="cls-2" d="M145.88,141.63c.09.28.06.1,0,.49a2,2,0,0,1-.63.18v-.12a4,4,0,0,1,.59-.55Zm0,0"/><path class="cls-2" d="M145,141.47c.09.37.23.37.07.59a1.76,1.76,0,0,1-.83,1.29l0,.1-.17,0-.07-.48a1.53,1.53,0,0,0,.53-1l-.31,0v.12l-.26.5-.17,0v-.12c-.17-.14-.2-.28-.24-.59a3.61,3.61,0,0,0,1.41-.47Zm0,0"/><path class="cls-2" d="M144,145.16c.13.63.26,1.27.39,1.9l-.33,0c-.1-.79-.42-.95-.56-1.78Zm0,0"/><path class="cls-2" d="M143.21,142.93a1.45,1.45,0,0,1,.15,1.07l-.17,0,0-.12a.64.64,0,0,1,0-1Zm0,0"/><path class="cls-2" d="M142.3,154.36c.15.26.33.7.25.83l0,.12c-.42-.17-.42-.15-.57-.55Zm0,0"/><path class="cls-2" d="M145.47,133a4.25,4.25,0,0,1,1.27-.59,1.43,1.43,0,0,1,.21.47l-.6.42c-.5,0-.78,0-1.05-.3Zm0,0"/><path class="cls-2" d="M144.31,130.17l.34,0c-.28.16-.16.23-.34,0Zm0,0"/><path class="cls-2" d="M146.09,127.25c.13.25.17.11.07.34-.29.82-1.22,1.29-1.76,2h-.16l0-.37c.82-.53,1-1.43,1.89-1.94Zm0,0"/><path class="cls-2" d="M136.09,138.89l-.16,0-.07-.61.31-.13a1.3,1.3,0,0,1-.07.72Zm0,0"/><path class="cls-2" d="M137.54,123.56a1.5,1.5,0,0,1-.11.49l-.16,0-.06-.49Zm0,0"/><path class="cls-2" d="M137.18,136.88l0,.37a4.5,4.5,0,0,1-.93.56l0-.24c.53-.2.52-.45.93-.68Zm0,0"/><path class="cls-2" d="M136.24,131.88l-.34,0,0-.25.33,0Zm0,0"/><path class="cls-2" d="M136,123.44l.06.49-.33,0,0-.37Zm0,0"/><path class="cls-2" d="M135.67,132.65l.47,0a2,2,0,0,1-.37,1l-.33,0,0-.24v-.12c.07-.33.16-.29.27-.61Zm0,0"/><path class="cls-2" d="M135.43,124l.07.61-.34,0-.07-.61Zm0,0"/><path class="cls-2" d="M116,125.24l-.18-.09c-.3-.36-.88-.87-.65-1.29a9.64,9.64,0,0,1,1,1.38Zm0,0"/><path class="cls-2" d="M117.13,122a2.78,2.78,0,0,1,.82,1.28h-.34l0-.22c-.4-.19-.74-.67-.45-1.06Zm0,0"/><path class="cls-2" d="M117.83,125.11l0-.25c-.28-.21-.46-.53-.24-.83a3,3,0,0,1,.45,1Zm0,0"/><path class="cls-2" d="M118.38,122.65c-.35-.31-.45-.27-.6-.8l.16,0c.32.32.46.26.59.8Zm0,0"/><path class="cls-2" d="M118.28,134.25V134l.31-.15c-.1.41.08.18-.3.39Zm0,0"/><path class="cls-2" d="M119.37,124.14l0-.24c-.14-.2-.14-.14,0-.37a1.89,1.89,0,0,1,.4.58Zm0,0"/><path class="cls-2" d="M119,138.19l-.1.62h-.17l-.07-.49Zm0,0"/><path class="cls-2" d="M123.88,138c-.06.39.13.16-.26.37l-.08-.37Zm0,0"/><path class="cls-2" d="M123.21,133.75l0,.23-.33,0,0-.25Zm0,0"/><path class="cls-2" d="M122.06,132.5l.3-.13c.23.15.2.07.38.31a2.55,2.55,0,0,1-.77.43l0-.24c.19-.23,0-.2.13-.37Zm0,0"/><path class="cls-2" d="M121.84,136.16v.22l-.3,0,0-.23Zm0,0"/><path class="cls-2" d="M121.53,137.75l.3-.27a1.52,1.52,0,0,1-.06.74h-.17Zm0,0"/><path class="cls-2" d="M121.66,140.15l0-.49.3-.13-.1.6Zm0,0"/><path class="cls-2" d="M122.35,139c0-.28-.08-.57-.12-.83a2.11,2.11,0,0,0,.16-1.47l.33,0a4.65,4.65,0,0,1-.05,2.29Zm0,0"/><path class="cls-2" d="M102.83,136.54c-.34-.18-.65-.14-.87-.41h-.17l0-.12.5,0c.28.21.62.28.91.52Zm0,0"/><path class="cls-2" d="M107.22,136c-.28-.2-.34-.11-.54-.44h-.17v-.1l.3,0c.35.23.39.11.57.55Zm0,0"/><path class="cls-2" d="M95,140.55l.54.18-.51,0-.2-.21Zm0,0"/><path class="cls-2" d="M92.64,141.32l0-.24.3-.26.5-.05V141a2,2,0,0,1-.77.3Zm0,0"/><path class="cls-2" d="M96.64,141.38c-.16.1-.16.08-.5.16a7.73,7.73,0,0,0-2.49-.15l-.07-.37.33,0a6.44,6.44,0,0,1,2.86.39Zm0,0"/><path class="cls-2" d="M100.21,143.52H100l-.06-.46.46-.15a1.69,1.69,0,0,1-.23.62Zm0,0"/><path class="cls-2" d="M101.21,153.22v-.12l.47-.15c0,.3.12.18-.47.28Zm0,0"/><path class="cls-2" d="M101.56,156l0,.22-.5.06,0-.24Zm0,0"/><path class="cls-2" d="M101.5,156.94c-.16.1-.13.09-.46.15l0-.22.65-.18,0,.12h.13c.34.05-.3.13-.3.13Zm0,0"/><path class="cls-2" d="M111.32,139.63a1.48,1.48,0,0,1-.06.73h-.17l0-.34Zm0,0"/><path class="cls-2" d="M109.14,139.2l-.13.37h-.17l0-.35Zm0,0"/><path class="cls-2" d="M107.15,146.23a.9.9,0,0,1,.36.09l.31,0,.07.37-.66.05-.21-.35h.16Zm0,0"/><path class="cls-2" d="M107.84,145.09V145l.3-.15c0,.26,0,.24-.1.36l0-.12Zm0,0"/><path class="cls-2" d="M108,143.87l.3-.15,0,.25-.34,0Zm0,0"/><path class="cls-2" d="M108.08,145.68l.2.22-.17,0L108,146l0-.36Zm0,0"/><path class="cls-2" d="M108.6,147.09c-.28.15-.17.23-.34,0Zm0,0"/><path class="cls-2" d="M106.92,144.2l.47,0,0,.22-.43.52-.34,0,0-.36Zm0,0"/><path class="cls-2" d="M106.5,144.83c-.08.28-.15.57-.23.86l-.5.06v-.12c.27-.28.34-.56.73-.79Zm0,0"/><path class="cls-2" d="M104.15,144.53c.11-.13.05,0,.13-.25l.34,0,0,.48-.3,0c-.09,0,0,0-.21-.19Zm0,0"/><path class="cls-2" d="M104.76,146.91v.1l-.16,0v-.12c-.15-.12-.12-.1-.21-.35.16-.29.09-.57,0-1.1l.61-.4a1.31,1.31,0,0,1-.26,1.84Zm0,0"/><path class="cls-2" d="M105.29,144.58a2.78,2.78,0,0,1-.21-.48,2.83,2.83,0,0,1,.63-.28,2.18,2.18,0,0,1,.08.71Zm0,0"/><path class="cls-2" d="M106,150.66l-.17-.09,0-.13.5,0c0,.3.14.14-.3.25Zm0,0"/><path class="cls-2" d="M109.68,158.72h-.17l0-.36.34,0Zm0,0"/><path class="cls-2" d="M109.34,147.76a2.13,2.13,0,0,0-.45-.95l.34,0a.93.93,0,0,0,.51.09c0,.28.07.56.08.83Zm0,0"/><path class="cls-2" d="M110.47,142c-.17.11-.17.09-.51.16V142l.59-.41.21.34Zm0,0"/><path class="cls-2" d="M110.39,141.51l-.06-.47c.13-.12.06,0,.16-.25l.31,0,.07.45Zm0,0"/><path class="cls-2" d="M111,141l.46-.28c0,.44,0,.57-.39.77Zm0,0"/><path class="cls-2" d="M111.25,143.13V143l-.16,0v-.12h.16l.3-.15c-.11.39.09.18-.3.38Zm0,0"/><path class="cls-2" d="M111.34,142.41l0-.23.31-.15c-.08.41.11.18-.27.38Zm0,0"/><path class="cls-2" d="M112.73,144.23c-.05.26.17.12-.16.24.08-.2,0-.09.16-.24Zm0,0"/><path class="cls-2" d="M112.2,141.25c0,.27,0,.25-.12.37l0-.36Zm0,0"/><path class="cls-2" d="M112.19,143.91l.31,0,0,.25h-.33Zm0,0"/><path class="cls-2" d="M112.23,148.25l.3-.13c.09.27.12.15.07.46l-.2-.1Zm0,0"/><path class="cls-2" d="M112.48,157.29a5.29,5.29,0,0,0-.07-.71l.34,0Zm0,0"/><path class="cls-2" d="M112.67,145.21h-.16v-.12c-.14-.12-.12-.1-.23-.34l.5,0a2.25,2.25,0,0,1-.1.5Zm0,0"/><path class="cls-2" d="M109,169.4v-.1l.3-.15,0,.24Zm0,0"/><path class="cls-2" d="M111.62,170.4l0-.1.33-.15v.24Zm0,0"/><path class="cls-2" d="M115.52,171.19l-.17,0,0-.36.34,0Zm0,0"/><path class="cls-2" d="M118.93,158.37a1.77,1.77,0,0,1-.93.68v-.12c.36-.21.44-.4.94-.56Zm0,0"/><path class="cls-2" d="M117.67,160.4l-.23,0s0,0-.11-.17l.3-.16.51.21-.14.12Zm0,0"/><path class="cls-2" d="M117.42,162.46c-.14-.12-.11-.1-.2-.34a1.15,1.15,0,0,0,.43-.52l.2.21.34.12,0,.34c-.48.09-.64.3-.81.18Zm0,0"/><path class="cls-2" d="M117.82,161.47l0-.12c.24-.15.14-.15.47-.28-.16.27-.08.23-.43.4Zm0,0"/><path class="cls-2" d="M117.77,159.91v-.25a3.27,3.27,0,0,0,.89-.8l.48,0,0,.24c-.67.22-.71.59-1.4.84Zm0,0"/><path class="cls-2" d="M119.69,164.7l-.17,0,0-.37.3-.27a1.14,1.14,0,0,1-.09.61Zm0,0"/><path class="cls-2" d="M119.69,160.61l-.64.28,0-.49c-.16-.11-.16-.17-.23-.45l.68,0,0,.23-.29.27c.5-.05.22-.09.63-.05Zm0,0"/><path class="cls-2" d="M120.34,165.87c-.24-.4-.22.06-.4-.58h.33l0,.34.5,0a2,2,0,0,1-.19,1.22l-.34,0-.34-.22.14-.15c.16-.33.3-.27.43-.62Zm0,0"/><path class="cls-2" d="M120.69,167.52l0,.12-.33,0,0-.25c-.29-.19-.4-.29-.25-.58a1.44,1.44,0,0,0,.74.43c-.08.22,0,.12-.16.25Zm0,0"/><path class="cls-2" d="M120.75,163.78l-.06-.35.33,0c0,.33.26.18-.27.38Zm0,0"/><path class="cls-2" d="M125.33,172.85l0-.24c.19-.32,0-.84.36-1.23.08.22.15.46.24.7-.24.29-.16.55-.56.76Zm0,0"/><path class="cls-2" d="M125.77,176.42l-.17,0c0-.24,0-.48-.08-.71l.34,0a1.81,1.81,0,0,1-.09.71Zm0,0"/><path class="cls-2" d="M125.79,175.1l-.07-.47.31-.15a.93.93,0,0,1-.23.62Zm0,0"/><path class="cls-2" d="M126.69,167.78l-.16,0,0-.49.3,0Zm0,0"/><path class="cls-2" d="M133.8,148.63a1.46,1.46,0,0,0-.84-.18l-.06-.37.84-.06.73.55Zm0,0"/><path class="cls-2" d="M134.39,150.88c-.24.15-.13.22-.3,0Zm0,0"/><path class="cls-2" d="M134.22,157.41l-.07-.49.33-.12.08.59Zm0,0"/><path class="cls-2" d="M134.49,150.26l0-.37.46-.4,0,.49Zm0,0"/><path class="cls-2" d="M135,156l0-.24.33,0,0,.24Zm0,0"/><path class="cls-2" d="M136.27,158l.2.36-.47,0c.07-.41-.12-.18.27-.39Zm0,0"/><path class="cls-2" d="M136.71,154.68l-.18,0,0-.37.29,0Zm0,0"/><path class="cls-2" d="M139.83,154.42l0-.34.3,0c-.08.4.12.18-.27.38Zm0,0"/><path class="cls-2" d="M140.4,147a2.73,2.73,0,0,1,.31,1.07h-.17v.12c-.28,0-.17,0-.34-.09s-.14-.2-.24-.46c.13-.15.11-.21.13-.5Zm0,0"/><path class="cls-2" d="M133.51,146.23a2.52,2.52,0,0,1-1.06.93l0-.49c.4-.46.39-.9,1-1.27.07.43.21.63.1.83Zm0,0"/><path class="cls-2" d="M134.83,124.39c0,.23,0,.47.07.71l-.33,0c0-.25,0-.49-.08-.74Zm0,0"/><path class="cls-2" d="M134.47,140.48l-.13.37h-.17l0-.36Zm0,0"/><path class="cls-2" d="M132.59,125.29c.2.26.34.27.24.46v.13c-.34-.15-.34-.13-.55-.45Zm0,0"/><path class="cls-2" d="M131.75,125.11l.21.34-.47,0,0-.22Zm0,0"/><path class="cls-2" d="M132.57,134.35h-.16l0-.25.46-.28c-.1.31-.05.21-.3.4Zm0,0"/><path class="cls-2" d="M131.38,143.73l.32-.13-.13.37h-.17Zm0,0"/><path class="cls-2" d="M131.67,143.47c0-.24-.06-.48-.06-.71l.3,0c.07.28,0,.3-.06.72Zm0,0"/><path class="cls-2" d="M131.64,139c0-.37-.11-.73-.14-1.08.13-.15.05,0,.13-.27l.33-.13c0,.47,0,1,0,1.45Zm0,0"/><path class="cls-2" d="M131.83,133.92l-.48,0-.07-.48a1.42,1.42,0,0,0,.6-.65h.3l0,.23c-.3.24-.32.52-.39.88Zm0,0"/><path class="cls-2" d="M132.47,141.84l-.09.61h-.17l-.07-.59Zm0,0"/><path class="cls-2" d="M133.06,135.63l0,.49h-.17V136l-.2-.24Zm0,0"/><path class="cls-2" d="M130.75,133.16l0-.24.47-.29-.09.5Zm0,0"/><path class="cls-2" d="M130.83,139.3c0,.27,0,.25-.12.38l0-.34Zm0,0"/><path class="cls-2" d="M127,137.55a2.43,2.43,0,0,1,.28.95h-.16l0-.12a1.13,1.13,0,0,1-.41-.68Zm0,0"/><path class="cls-2" d="M125.85,140.55l-.47,0a4.34,4.34,0,0,0-.91-.53,3.43,3.43,0,0,0,.06-1l.3-.24.17,0V139a2.15,2.15,0,0,1,.84,1.51Zm0,0"/><path class="cls-2" d="M125.56,142.14c-.21.21-.11.14-.47.28l0-.12-.14,0,0-.12Zm0,0"/><path class="cls-2" d="M125.16,137.59H125a1.31,1.31,0,0,1-.42-.82,1.35,1.35,0,0,0,.26-.62l.3,0c0,.49,0,1,0,1.46Zm0,0"/><path class="cls-2" d="M124.39,135.22l.44-.27.06.36c-.36,0-.33,0-.5-.09Zm0,0"/><path class="cls-2" d="M124.63,120.95a2.1,2.1,0,0,1,.05,1.93h-.17c0-.42-.1-.87-.15-1.32Zm0,0"/><path class="cls-2" d="M124.59,135.56c.12.31.18.42-.09.74l-.24-.59Zm0,0"/><path class="cls-2" d="M125.46,145.4l-.34,0c-.29-.25-.51-.31-.74-.65l.46-.3-.5.05c0-.37,0-.74.05-1.1a2.06,2.06,0,0,0,.73-.53c-.53-.07-.22.07-.5-.21l.33,0c.16-.1.14-.08.47-.15v.12h.16l-.1.37.48,0v-.12l.16,0v.12h.17l0,.13h-.17l-.8.31c0,.73-.29.63-.53,1.12.48,0,.22-.13.5,0s.21.48.25.83l-.14,0Zm0,0"/><path class="cls-2" d="M116.18,142.63a6.81,6.81,0,0,1,.27.83l-.33,0,0-.12a.66.66,0,0,1-.21-.34Zm0,0"/><path class="cls-2" d="M115.29,142.22l.17,0c0,.33.08.64.11,1l-.5,0a1.51,1.51,0,0,1,.22-1Zm0,0"/><path class="cls-2" d="M113.92,156.82l-.34,0,0-.49h.34Zm0,0"/><path class="cls-2" d="M113.65,142.47l0,.25h-.33v-.12Zm0,0"/><path class="cls-2" d="M113,143.61l.3-.39.3-.14a1.5,1.5,0,0,1-.2,1H113Zm0,0"/><path class="cls-2" d="M113.22,157.84l0-.23.16,0c.13-.29.24-.28.43-.52l.17.12c.17.12.18.18.24.46-.33.07-.64.15-1,.2Zm0,0"/><path class="cls-2" d="M114.16,153.3v-.11l-.21-.12.33-.15c0,.27,0,.25-.12.39Zm0,0"/><path class="cls-2" d="M114.26,150l0-.25.33,0,0,.25Zm0,0"/><path class="cls-2" d="M115.15,156.12V156l-.21-.24v-.12l.14-.13a1.58,1.58,0,0,1,.24.58Zm0,0"/><path class="cls-2" d="M115.38,155.13c-.3-.85-.64-.88-.73-1.87l.34,0a4.87,4.87,0,0,1,.72,1.89Zm0,0"/><path class="cls-2" d="M115.78,147.62v-.12l-.19-.24.33,0c0,.27,0,.25-.13.39Zm0,0"/><path class="cls-2" d="M117,148.12l-.31,0-.07-.48.47-.16.06.49Zm0,0"/><path class="cls-2" d="M118.66,154.76l-.33,0c0-.29-.07-.55-.11-.84.13-.2.1-.55,0-1.11h.34l0,.47.5,0a1.81,1.81,0,0,1-.46,1.48Zm0,0"/><path class="cls-2" d="M118.36,147l.33-.13a2.56,2.56,0,0,1,.29,1l-.13.15-.2-.11c-.23-.24-.19-.87-.28-.95Zm0,0"/><path class="cls-2" d="M119.68,152.5l-.13.13-.07-.47.5-.15,0,.35Zm0,0"/><path class="cls-2" d="M120.72,148.79l-.3,0,0-.12-.17,0,.23-.86.33,0a2.92,2.92,0,0,1-.06,1Zm0,0"/><path class="cls-2" d="M121.29,147.92l.33,0,0,.47-.13,0,0-.23Zm0,0"/><path class="cls-2" d="M121.59,155.85l0-.47c.09-.17,0-.8.36-1.12l.51.2c-.07.63-.08,1.14-.83,1.39Zm0,0"/><path class="cls-2" d="M125.65,152.4l.17.12,0,.35c-.61,0-.55.09-.84-.17v-.12c.17-.12.25-.12.64-.18Zm0,0"/><path class="cls-2" d="M124.64,152.24l0-.24c-.14-.12-.11-.1-.21-.34l.34,0a3,3,0,0,1,1.1-.21c0,.38-.54.61-1.21.82Zm0,0"/><path class="cls-2" d="M125.83,153.84l.31-.15.54.33h-.17l-.27.49-.16,0a1.13,1.13,0,0,0-.4-.71Zm0,0"/><path class="cls-2" d="M124,152.77l-.33.15-.07-.61.33,0c.1.35.2.24.07.49Zm0,0"/><path class="cls-2" d="M124.27,164.22l-.33,0c0-.28-.07-.57-.11-.83.13-.15.05,0,.13-.27h.34a2.11,2.11,0,0,1,0,1.07Zm0,0"/><path class="cls-2" d="M124.77,158.63h-.17l.31-.13,0,.23Zm0,0"/><path class="cls-2" d="M127.79,174.1h-.14a9.45,9.45,0,0,1-.14-.95l.3-.28a2.56,2.56,0,0,1,0,1.22Zm0,0"/><path class="cls-2" d="M128.49,173h-.17c0-.33-.07-.63-.11-1l.33-.15a3.57,3.57,0,0,1-.05,1.1Zm0,0"/><path class="cls-2" d="M129.6,173.83l-.07-.59c-.28-.26-.15-.51-.11-.83l.33,0a5,5,0,0,0,.18,1.44Zm0,0"/><path class="cls-2" d="M130.13,143v-.12l-.17,0a2.15,2.15,0,0,0,.09-.5l.31-.14c.09.26.24.5-.23.73Zm0,0"/><path class="cls-2" d="M130.14,132.24l-.07-.61h.16a1.39,1.39,0,0,0,.68.07l0,.36h-.16a3.59,3.59,0,0,0-.63.18Zm0,0"/><path class="cls-2" d="M130.78,144.15c0-.36-.11-.71-.15-1.08.11-.14.05,0,.13-.27l.47-.15a2.4,2.4,0,0,1-.29,1.48Zm0,0"/><path class="cls-2" d="M132.27,149.71l0-.37h.34a3,3,0,0,1,1.13-.21c0,.36.06.16-.26.5a2.93,2.93,0,0,0-1.18.09Zm0,0"/><path class="cls-2" d="M125.6,208.56v-.08l.42,0v.14l-.31-.05-.2-.05Zm0,0"/><path class="cls-2" d="M128.49,198.13l.23.13v.14a1,1,0,0,1-.51-.11l0-.14Zm0,0"/><path class="cls-2" d="M127.91,198.33h.19l0,.2a5.31,5.31,0,0,0-1.5.34l-.31-.05h-.08Zm0,0"/><path class="cls-2" d="M124.58,200.13l0,.3h-.11l-.24-.34Zm0,0"/><path class="cls-2" d="M122.16,196.13l.3,0v.08h-.08l-.47.32-.22,0Zm0,0"/><path class="cls-2" d="M112.7,199.08l0,.28h-.12l-.12-.34Zm0,0"/><path class="cls-2" d="M112.61,190.08c.21.21-.06.58-.19.83l-.11.08h-.08a7.29,7.29,0,0,1,.38-.91Zm0,0"/><path class="cls-2" d="M95.33,198.67l-.42-.2,0-.3a2.58,2.58,0,0,1,.85.24l.11,0c-.13.19-.3.21-.58.28Zm0,0"/><path class="cls-2" d="M94.43,196.24a2.59,2.59,0,0,1,1.49.75H96v.08a2.35,2.35,0,0,1-1.6-.83Zm0,0"/><path class="cls-2" d="M95.94,196.24c-.41-.32-1.05-.53-1.35-1V195c.6.23.83.75,1.42,1l0,.22Zm0,0"/><path class="cls-2" d="M95.05,194.85c.57.1.69.57,1.12.79l0,.22c-.48-.17-1.16-.64-1.15-1Zm0,0"/><path class="cls-2" d="M100.09,192.08l0-.28.22.05v.22Zm0,0"/><path class="cls-2" d="M100.54,192.41l0-.37h.2l0,.37Zm0,0"/><path class="cls-2" d="M100.93,192.25h.19l0,.42-.19,0Zm0,0"/><path class="cls-2" d="M101.35,197.3h.28l.26.34v.08l0,.14h-.22a1.21,1.21,0,0,1-.35-.56Zm0,0"/><path class="cls-2" d="M101.37,200.17V200c.26.12.31.26.65.31v.14a2.06,2.06,0,0,1-.65-.25Zm0,0"/><path class="cls-2" d="M89.32,209.92l.19.05h.11v.14c-.41,0-.44.07-.3-.2Zm0,0"/><path class="cls-2" d="M90.9,210.53v-.07h-.12v-.08l.46-.32.2,0c-.05.29-.28.36-.55.49Zm0,0"/><path class="cls-2" d="M91.83,213l-.3,0a4.84,4.84,0,0,1,.51-.64h.22v.14Zm0,0"/><path class="cls-2" d="M92.66,215h-.11l.07-.37.12.28h-.08Zm0,0"/><path class="cls-2" d="M92.68,213.48l-.31,0,.19-.25.2.08Zm0,0"/><path class="cls-2" d="M93.09,211.09l-.08.15,0,.08-.22,0,.16-.4h.11V211l.11.08Zm0,0"/><path class="cls-2" d="M94,216.79v.07l-.2,0c-.13-.44-.45-1-.15-1.26l0-.14h.19l.15.28.31,0-.12-.2c0-.38,0-.39.21-.61h.11a3.17,3.17,0,0,1-.47,1.88Zm0,0"/><path class="cls-2" d="M97.34,203.46c.39.05.37.18.93.14l0,.37V204h-.11l-.23-.28v-.06h-.2a1,1,0,0,0,.46.57l0,.28-.11,0v-.08a1.18,1.18,0,0,1-.69-.67c-.11-.14,0-.14,0-.37Zm0,0"/><path class="cls-2" d="M96.84,203.64l.46.25V204l-.42-.05a.56.56,0,0,1,0-.28Zm0,0"/><path class="cls-2" d="M95.47,207.36l-.31-.05a2.43,2.43,0,0,1,0-1l.38.64Zm0,0"/><path class="cls-2" d="M95.7,215.77a1,1,0,0,1-.15-.45l.19.07,0,.38Zm0,0"/><path class="cls-2" d="M95.72,204.46v-.22l.61.1,0,.23-.53-.11Zm0,0"/><path class="cls-2" d="M99.79,214.34v.2l-.09,0a1.46,1.46,0,0,1-.38-.65Zm0,0"/><path class="cls-2" d="M99.28,206c0,.41.08.83.14,1.24l-.61.11a2.91,2.91,0,0,1,.36-1.21V206Zm0,0"/><path class="cls-2" d="M98.73,207.47l.5,0v.09l.11,0v.08l-.59,0Zm0,0"/><path class="cls-2" d="M98.65,204.16c.19.14.34.37.15.59l0,.05-.11,0a.89.89,0,0,1-.07-.67Zm0,0"/><path class="cls-2" d="M98.82,205.62c0,.51-.11.63-.08,1.12h-.2l0-1.18Zm0,0"/><path class="cls-2" d="M98.55,211l0-.45h.09a1,1,0,0,1,.26.42Zm0,0"/><path class="cls-2" d="M98.89,208v-.14l.5,0v.06l-.08,0v.06Zm0,0"/><path class="cls-2" d="M105.58,203l0,.42h-.08c-.12-.24-.14-.24-.15-.42Zm0,0"/><path class="cls-2" d="M105.16,202.84l-.11,0-.15-.37.22,0Zm0,0"/><path class="cls-2" d="M105,200.72h-.2c-.07-.28-.13-.59-.19-.87l.2.06.12.14a5.81,5.81,0,0,1,.08.67Zm0,0"/><path class="cls-2" d="M103.75,197.2v-.14l.2,0,.46.33,0,.3h-.31c-.09-.2-.15-.38-.37-.47Zm0,0"/><path class="cls-2" d="M104.83,196.15l.07.36a3.76,3.76,0,0,0-.42-.05l-.11,0v-.23l.39-.1Zm0,0"/><path class="cls-2" d="M102.86,192.39l.23.05v.15l-.3,0Zm0,0"/><path class="cls-2" d="M102.39,192.57l.2.06-.27.31v-.06Zm0,0"/><path class="cls-2" d="M102.32,201.06a.93.93,0,0,1-.18-.43l.23.05,0,.38Zm0,0"/><path class="cls-2" d="M103.33,195.37c.11-.21.19-.17.27-.38l-.65-.1-.11-.15c.1-.21.24-.27.58-.34-.15-.37-.35-.24-.58-.47-.24.15-.13,0-.07.23h-.2l-.34-.25.18-.31a.66.66,0,0,1,.13-.6l.3,0,0-.22c.31-.09.47-.23.78-.12s.25-.07.43.11l.1,0-.07.22-.31,0h-.3c.28.23.37.13.73.19l-.27.22c.22.26,1,.49.64,1-.19.25-.12.1-.42.11l.26.27v.15a4.72,4.72,0,0,1-1-.3l-.19,0v.06h.11c.15.14.14.1.17.08s.07-.06.22,0c.39.11.74.72.94,1l-.27.23-.22,0-.35-.56-.31-.05Zm0,0"/><path class="cls-2" d="M104.94,205.23c-.11-.11-.06-.25-.07-.51.42.15.49.44.8.67l0,.28a1.61,1.61,0,0,1-.77-.44Zm0,0"/><path class="cls-2" d="M100.85,211.53v-.08l0-.52.23.2c0,.26,0,.24-.24.39Zm0,0"/><path class="cls-2" d="M101.2,207l-.19.09V207h-.11a1.17,1.17,0,0,1,0-.65l.2.05.15.28Zm0,0"/><path class="cls-2" d="M104.62,207.61l0-.3.35.2v.22Zm0,0"/><path class="cls-2" d="M105.24,212.73l-.28,0,.06-.22c.28.07.13,0,.23.2Zm0,0"/><path class="cls-2" d="M105.12,206.68l-.41,0,.38-.4.5,0v.22c-.28,0-.34.05-.47.17Zm0,0"/><path class="cls-2" d="M106,212l0-.37.2.05,0,.28Zm0,0"/><path class="cls-2" d="M105.51,207.24c-.25-.18-.23-.05-.26-.27a2.07,2.07,0,0,1,.72,0h.2l0,.21a1.68,1.68,0,0,0-.7.06Zm0,0"/><path class="cls-2" d="M106.19,203.72a1.41,1.41,0,0,1-.42-.86l.31.05.11.13c0,.22,0,.45.08.67Zm0,0"/><path class="cls-2" d="M106.51,203c-.34-.09-.29-.25-.27-.42l.19.06.15.28h-.11Zm0,0"/><path class="cls-2" d="M106.77,190.39a1.37,1.37,0,0,1-.23-1.18l.23.36c0,.27.07.53.11.82Zm0,0"/><path class="cls-2" d="M107.36,201.71h-.22c-.13-.77-.11-1.14-.25-2.05l.41,0c.08.61.27,1.66,0,2Zm0,0"/><path class="cls-2" d="M107.64,199.92V200h-.11a1.8,1.8,0,0,1,0-.6l.2.06a.59.59,0,0,1-.13.45Zm0,0"/><path class="cls-2" d="M110,202.68c.06.23.12.45.16.65l-.28,0,.3.13c-.07.23-.21.28-.35.46l-.19,0v-.08l-.11,0c0-.23-.06-.41,0-.53s.08,0,.11,0a.46.46,0,0,0,.2,0c-.23-.25-.4-.17-.49-.62l-.53-.1h-.08v-.09h.09v-.06l.11,0v.07l.31,0-.15-.2.11,0v-.05l.3,0,.2,0c-.13.18,0,.08-.28.17Zm0,0"/><path class="cls-2" d="M109.52,202v.09h-.11l0,.08-.34-.13Zm0,0"/><path class="cls-2" d="M111,200.47l-.14-.36.22.05,0,.29Zm0,0"/><path class="cls-2" d="M111.19,189.14a.45.45,0,0,1-.12.67V190l-.2,0a1.32,1.32,0,0,1,.31-.84Zm0,0"/><path class="cls-2" d="M110.66,189.13h.11c0,.32-.1.31-.23.54h-.12c0-.32.11-.33.24-.53Zm0,0"/><path class="cls-2" d="M110.5,199.33l.07.51h-.22a2.91,2.91,0,0,1-.35-1.38h.19a1.29,1.29,0,0,0,.31.87Zm0,0"/><path class="cls-2" d="M110.11,190.27v.23l0,.14H110Zm0,0"/><path class="cls-2" d="M110.19,199.95a1.18,1.18,0,0,1,.23.48c-.53.05-.21.09-.77.23,0-.28-.07-.55-.11-.81.37.13.18.14.65.11Zm0,0"/><path class="cls-2" d="M109.56,195.85l.23.06.12.21v.15l-.5-.19Zm0,0"/><path class="cls-2" d="M109.07,200l.2.12a1.61,1.61,0,0,0,.18.58l-.46.4-.3,0a1.22,1.22,0,0,1,.31-1l0-.15Zm0,0"/><path class="cls-2" d="M108.93,198l-.07.37-.15-.42Zm0,0"/><path class="cls-2" d="M108.78,197.76l-.27.1,0-.23Zm0,0"/><path class="cls-2" d="M108.66,198.36l.23.33a.64.64,0,0,1-.12.54h-.11l-.19-.84Zm0,0"/><path class="cls-2" d="M108,201.43c0-.67.21-1.43.25-2l.11,0c.33.79,0,1.16-.06,2Zm0,0"/><path class="cls-2" d="M108.46,205.08c-.41-.56-.17-1-.21-1.83a.81.81,0,0,1,.54.19h.11c-.15-.24-.26-.21-.38-.49l.73.24c.15.38,0,1,0,1.1,0,.43-.35.5-.6.79Zm0,0"/><path class="cls-2" d="M122.37,217.75l0-.22h.11a5.31,5.31,0,0,0,1,1.13,1.76,1.76,0,0,0-.16.33l0,.2a2,2,0,0,1-.5-.82l-.3,0-.34-.43c.24-.07.08,0,.38,0Zm0,0"/><path class="cls-2" d="M116.63,213.1l.08-.17.34.28-.07.22c-.06.09-.21,0-.51,0l0-.22Zm0,0"/><path class="cls-2" d="M116.11,211.37l0,.05a1,1,0,0,1-.64-.3,2.61,2.61,0,0,1,.62.25Zm0,0"/><path class="cls-2" d="M115.72,211.41l.65.38,0,.15c-.45-.1-.53-.29-1-.36l0-.16Zm0,0"/><path class="cls-2" d="M116,216.82l-.19,0v-.09l-.14-.14.38-.32,0,.37Zm0,0"/><path class="cls-2" d="M115.92,216.32l-.2,0a1.39,1.39,0,0,1-.29-.73h.3l0-.22.22,0c0,.41-.07.13-.15.39h-.12c.14.2.2.16.34.34l.12.08Zm0,0"/><path class="cls-2" d="M115.64,212.36l-.23-.14v-.13l.4,0-.05.31,0,.28-.43-.11-.11-.14a1.2,1.2,0,0,1,.38,0Zm0,0"/><path class="cls-2" d="M114.17,207.67l-.23-.06,0-.22.31.05,0,.28Zm0,0"/><path class="cls-2" d="M113.93,204.22l.23.06,0,.59-.07.09-.11-.06a1.59,1.59,0,0,1,0-.67Zm0,0"/><path class="cls-2" d="M115.12,208.93a1.34,1.34,0,0,1-.53-.84l.31,0,0-.28.22,0a1,1,0,0,0,.16.65l.06.53Zm0,0"/><path class="cls-2" d="M115.12,204.8l-.12-.08,0-.29.3.05,0,.28Zm0,0"/><path class="cls-2" d="M117.78,200.08l0-.28.22,0,.12.14,0,.3Zm0,0"/><path class="cls-2" d="M117.92,200.51l.07-.22.43.19,0,.08-.31,0Zm0,0"/><path class="cls-2" d="M118.43,209.41l0,.28-.22,0,0-.29Zm0,0"/><path class="cls-2" d="M118.22,210.23l.05-.29.12-.08.31.27.1,0v.16Zm0,0"/><path class="cls-2" d="M118.93,209.43h.19l.07.45Zm0,0"/><path class="cls-2" d="M119.36,203.87l-.07-.51.3-.09.19,0a1.39,1.39,0,0,0-.12.61Zm0,0"/><path class="cls-2" d="M120.37,203.06l0-.22.23,0,.19-.09v.08h.08l0,.22Zm0,0"/><path class="cls-2" d="M122.19,201.3l.12.12c-.14.21,0,.08-.28.17l0-.28Zm0,0"/><path class="cls-2" d="M121.84,201.84l.42.19c0,.31,0,.49.19.64l-.08.23,0,.06-.12,0v-.08a.81.81,0,0,1-.45-1.07Zm0,0"/><path class="cls-2" d="M121.27,201.14l.42.11-.07.31-.31,0a1.13,1.13,0,0,1,0-.44Zm0,0"/><path class="cls-2" d="M121.49,202.24v.06l-.3,0-.24-.51Zm0,0"/><path class="cls-2" d="M120.58,201.49l.23.19,0,.23-.19,0-.35-.27v-.15Zm0,0"/><path class="cls-2" d="M120.62,204.43c0,.31.07.27-.23.4V205l-.15-.42-.4,0a1.58,1.58,0,0,1-.26-.51l.31,0c.29.41.25.34.73.46Zm0,0"/><path class="cls-2" d="M119.34,196.19h.2v.09h-.09l-.26.31h-.11c0-.29.11-.21.27-.39Zm0,0"/><path class="cls-2" d="M119,198.66l.19,0a2.26,2.26,0,0,0,.65,1l0,.36-.31,0a1.37,1.37,0,0,1-.48-1.29Zm0,0"/><path class="cls-2" d="M117.75,198.9l.3,0c.09.32.15.27.35.42h.31a1.34,1.34,0,0,0,.5.84c-.05.27-.11.21-.25.39-.63-.06-.82-.69-.87-1.28l-.28.17-.1,0Zm0,0"/><path class="cls-2" d="M117.7,200.25c-.26-.09-.28-.18-.35-.42l.31.12Zm0,0"/><path class="cls-2" d="M117.5,199.37v.21l-.09,0a.94.94,0,0,1-.14-.44Zm0,0"/><path class="cls-2" d="M117.45,202.33l-.08.23v.06l-.08,0-.15-.3Zm0,0"/><path class="cls-2" d="M117.29,207.65c.09.61-.13.66-.17,1.2h-.2a2.28,2.28,0,0,1,.17-1.18Zm0,0"/><path class="cls-2" d="M116.65,201.5l.22.22,0,.28h-.2a1.09,1.09,0,0,1-.3-.56Zm0,0"/><path class="cls-2" d="M115.56,201.81l.3,0a1.45,1.45,0,0,0,.5.7,1,1,0,0,1-.12.67l-.3-.05c-.38-.25-.43-1.15-.37-1.3Zm0,0"/><path class="cls-2" d="M115.27,201.09a.84.84,0,0,1,.26.58h-.28l-.08-.57Zm0,0"/><path class="cls-2" d="M114.8,201.43l.23.2-.08.22,0,.08h-.22a2.7,2.7,0,0,1,0-.5Zm0,0"/><path class="cls-2" d="M112.81,209.12l.28-.17.38.62,0,.31c-.48-.09-.57-.38-.69-.75Zm0,0"/><path class="cls-2" d="M113.34,215.13h-.2a1.45,1.45,0,0,1-.18-.65l.19,0,.12.14Zm0,0"/><path class="cls-2" d="M113.18,205.54H113a1.48,1.48,0,0,1-.18-.56l.19,0,.27.5h-.09Zm0,0"/><path class="cls-2" d="M111.65,214.53h-.11a9.58,9.58,0,0,1,.13-2.23l.2,0a3.42,3.42,0,0,1-.22,2.16Zm0,0"/><path class="cls-2" d="M112.11,210.13V210H112l0,.51a1,1,0,0,1-.88-.53l-.18-.7v-.14c.39,0,.28,0,.53.16l.28-.17.19.65V210c.11-.13.07-.41,0-.65h.08c.12.2.07.28.07.56a2.56,2.56,0,0,1,.61,0c-.08.2-.22.21-.35.39Zm0,0"/><path class="cls-2" d="M110.51,208.49l0-.23.12-.08.39,0v.08c-.11.19-.11.15-.47.2Zm0,0"/><path class="cls-2" d="M110.29,207.6a2.33,2.33,0,0,1,.72,0h.19l-.07.23,0,.14c-.45-.07-.85-.14-.87-.38Zm0,0"/><path class="cls-2" d="M111.55,207.95h.2l.07.37-.23-.06c-.11-.13,0-.09,0-.3Zm0,0"/><path class="cls-2" d="M112.45,205.38h-.11l0-.3h.23l-.12.15Zm0,0"/><path class="cls-2" d="M111.17,221.42a2.64,2.64,0,0,0-.11-.87l.19,0,.07.51,0,.39Zm0,0"/><path class="cls-2" d="M111.72,220.13l.23.06.07.58h-.12a2.07,2.07,0,0,1-.19-.64Zm0,0"/><path class="cls-2" d="M112.52,220.8l.07.58h-.11a2.44,2.44,0,0,1-.19-.72Zm0,0"/><path class="cls-2" d="M113.34,220l0-.44c.29.21.24.54.38.72l0,.14Zm0,0"/><path class="cls-2" d="M113.83,221.51l0,.29-.26-.34Zm0,0"/><path class="cls-2" d="M113.9,222.15h.2l.06.45h-.11a.89.89,0,0,1-.15-.45Zm0,0"/></g></g></svg>